<svg width="330" height="87" fill="none" xmlns="http://www.w3.org/2000/svg"><path d="M33.005 44.386h-4.46V29.88h4.134c1.979 0 3.434.559 4.342 1.688.827 1.013 1.304 3.039 1.409 6.066.105 2.968.605 4.982 1.502 6.03.896 1.048 2.363 1.572 4.4 1.572 1.444 0 2.608-.35 3.493-1.048l-.361-.442c-.594.558-1.28.838-2.084.838-1.548 0-2.433-1.409-2.654-4.215-.024-.43-.07-1.082-.117-1.967-.058-.885-.093-1.479-.116-1.77a27.7 27.7 0 00-.163-1.327c-.082-.593-.175-1.013-.28-1.269a13.59 13.59 0 00-.419-.908 4.009 4.009 0 00-.628-.92c-1.316-1.443-3.446-2.351-6.392-2.735v-.07c2.2-.268 3.924-.99 5.18-2.154 1.258-1.164 1.887-2.596 1.887-4.284 0-1.316-.408-2.503-1.223-3.574a7.656 7.656 0 00-3.038-2.41c-1.13-.512-3.062-.768-5.821-.768-.594 0-1.339.023-2.247.058-.908.035-1.397.058-1.444.058h-7.834v.559h4.458v27.486h-4.458v.56h12.934v-.548zm-4.47-27.487c.663-.081 1.617-.116 2.851-.116 2.143 0 3.656.536 4.54 1.607.886 1.07 1.328 2.642 1.328 4.703 0 2.165-.407 3.749-1.21 4.738-.804.99-2.038 1.49-3.703 1.49h-3.819V16.9h.012zm44.529 19.256h-.442c-.407 2.515-1.304 4.517-2.713 6.007-1.408 1.49-3.12 2.235-5.122 2.235h-7.754V29.88h3.377c.861 0 1.595.151 2.212.466.617.302 1.106.78 1.466 1.432.361.64.64 1.257.827 1.827.186.583.384 1.35.605 2.306h.443V23.418h-.443c-.558 2.282-1.21 3.83-1.944 4.657-.733.826-1.99 1.245-3.76 1.245h-2.77V16.9h6.751c1.898 0 3.412.478 4.54 1.432 1.13.955 2.05 2.608 2.772 4.96h.442v-6.95H48.558v.558h4.46v27.487h-4.46v.559h24.518v-8.79h-.012zm4.587 8.091c.151-.116.396-.186.745-.186.373 0 1.34.245 2.887.745 1.549.5 3.353.745 5.39.745 3.109 0 5.612-.92 7.498-2.747 1.886-1.84 2.829-4.075 2.829-6.73 0-2.898-1.316-4.982-3.935-6.262-.675-.326-2.293-.885-4.866-1.689-2.573-.803-4.25-1.362-5.018-1.688-2.468-.99-3.702-2.572-3.702-4.738 0-1.746.64-3.097 1.933-4.063 1.28-.966 2.852-1.443 4.703-1.443 1.956 0 3.609.651 4.96 1.967 1.35 1.316 2.234 3.132 2.63 5.46h.478v-7.276h-.56c-.186.372-.349.605-.477.698-.14.094-.372.14-.721.14-.291 0-1.071-.256-2.329-.78a10.245 10.245 0 00-3.981-.78c-2.55 0-4.645.792-6.31 2.375s-2.492 3.597-2.492 6.066c0 1.955.56 3.446 1.689 4.458 1.129 1.013 2.724 1.875 4.784 2.573.594.186 1.42.443 2.492.768 1.07.326 1.84.548 2.293.687 3.563 1.153 5.344 3.144 5.344 5.984a6.95 6.95 0 01-.361 2.247c-.245.722-.629 1.409-1.141 2.072-.524.652-1.269 1.176-2.247 1.572-.978.384-2.142.582-3.48.582-1.177 0-2.201-.093-3.05-.28-.862-.185-1.736-.558-2.632-1.129-.896-.558-1.676-1.443-2.352-2.654-.675-1.21-1.21-2.747-1.606-4.622h-.443v8.639h.606c.14-.35.29-.583.442-.71zm23.435-25.752c1.106-1.059 2.62-1.583 4.517-1.583h2.492v27.487h-4.459v.558h12.934v-.558h-4.459V16.9h2.457c1.816 0 3.317.5 4.482 1.501 1.164 1.002 2.107 2.771 2.829 5.286h.442v-7.358H97.885v7.37h.442c.722-2.41 1.642-4.145 2.759-5.205zm18.988 26.462h8.638v-.559h-4.458l4.214-11.176h9.325l4.214 11.176h-4.458v.56h12.375v-.56h-3.574L135.418 15.63h-.966l-10.85 28.767h-3.54v.56h.012zm13.062-23.994l4.424 11.689h-8.836l4.412-11.689zm17.731 15.065c0 3.108.838 5.472 2.514 7.09 1.677 1.618 4.145 2.433 7.416 2.433 3.295 0 5.763-.803 7.393-2.41 1.711-1.665 2.573-3.853 2.573-6.59V16.9h4.459v-.56h-9.523v.56h4.458v19.406c0 2.655-.768 4.785-2.293 6.392-1.444 1.525-3.551 2.293-6.31 2.293-2.387 0-4.098-.71-5.122-2.13-1.037-1.42-1.549-3.563-1.549-6.427V16.9h4.459v-.558h-12.934v.558h4.459v19.128zm38.418 8.359h-4.459V29.88h4.145c1.979 0 3.434.559 4.342 1.688.827 1.013 1.304 3.039 1.409 6.066.104 2.968.605 4.982 1.501 6.03.897 1.048 2.364 1.572 4.401 1.572 1.444 0 2.608-.35 3.493-1.048l-.361-.442c-.594.558-1.281.838-2.084.838-1.549 0-2.433-1.409-2.655-4.215-.023-.43-.069-1.082-.116-1.967-.058-.885-.093-1.479-.116-1.77a29.377 29.377 0 00-.163-1.327c-.082-.593-.175-1.013-.28-1.269a13.483 13.483 0 00-.419-.908 3.972 3.972 0 00-.629-.92c-1.315-1.443-3.446-2.351-6.391-2.735v-.07c2.2-.268 3.923-.99 5.181-2.154 1.257-1.164 1.886-2.596 1.886-4.284 0-1.316-.408-2.503-1.223-3.574a7.654 7.654 0 00-3.038-2.41c-1.129-.512-3.062-.768-5.821-.768-.594 0-1.339.023-2.247.058-.908.035-1.397.058-1.444.058h-7.835v.559h4.459v27.486h-4.459v.56h12.935v-.548h-.012zm-4.471-27.487c.664-.081 1.619-.116 2.853-.116 2.142 0 3.655.536 4.54 1.607.885 1.07 1.327 2.642 1.327 4.703 0 2.165-.407 3.749-1.211 4.738-.803.99-2.037 1.49-3.702 1.49h-3.818V16.9h.011zm28.081 27.487h-4.459l4.214-11.176h9.325l4.215 11.176h-4.459v.559h12.387v-.559h-3.574L219.612 15.62h-.966l-10.851 28.767h-3.539v.559h8.639v-.559zm4.424-23.423l4.423 11.688h-8.836l4.413-11.688zm26.857 23.423h-4.459V18.552h.082l16.916 26.963h.803V16.9h4.459v-.558h-9.523v.558h4.47v21.34h-.081l-13.586-21.9h-8.604v.558h4.471v27.487h-4.471v.57h9.523v-.57zm22.271-25.892c1.106-1.059 2.62-1.583 4.517-1.583h2.492v27.487h-4.459v.558h12.934v-.558h-4.459V16.9h2.456c1.817 0 3.318.5 4.482 1.501 1.165 1.002 2.108 2.771 2.829 5.286h.443v-7.358h-24.436v7.37h.442c.722-2.41 1.641-4.145 2.759-5.205zm24.145 25.752c.152-.116.396-.186.745-.186.373 0 1.339.245 2.887.745 1.549.5 3.353.745 5.391.745 3.108 0 5.611-.92 7.497-2.747 1.886-1.84 2.829-4.075 2.829-6.73 0-2.898-1.316-4.982-3.935-6.262-.675-.326-2.293-.885-4.866-1.689-2.573-.803-4.25-1.362-5.018-1.688-2.468-.99-3.702-2.572-3.702-4.738 0-1.746.64-3.097 1.932-4.063 1.281-.966 2.853-1.443 4.704-1.443 1.956 0 3.609.651 4.959 1.967 1.351 1.316 2.235 3.132 2.631 5.46h.478v-7.276h-.559c-.186.372-.349.605-.478.698-.139.094-.372.14-.721.14-.291 0-1.071-.256-2.329-.78a10.242 10.242 0 00-3.981-.78c-2.55 0-4.645.792-6.31 2.375s-2.491 3.597-2.491 6.066c0 1.955.558 3.446 1.688 4.458 1.129 1.013 2.724 1.875 4.784 2.573.594.186 1.421.443 2.492.768 1.071.326 1.839.548 2.293.687 3.563 1.153 5.344 3.144 5.344 5.984a6.95 6.95 0 01-.361 2.247c-.245.722-.629 1.409-1.141 2.072-.524.652-1.269 1.176-2.247 1.572-.978.384-2.142.582-3.481.582-1.176 0-2.2-.093-3.05-.28-.861-.185-1.735-.558-2.631-1.129-.896-.558-1.676-1.443-2.352-2.654-.675-1.21-1.21-2.747-1.606-4.622h-.443v8.639h.606c.14-.35.302-.583.442-.71zM68.221 81.15c-.57-.453-1.408-.721-2.503-.814v-.058c.85-.129 1.537-.396 2.06-.792.525-.396.78-.897.78-1.502 0-.745-.313-1.316-.954-1.723-.628-.407-1.467-.617-2.503-.617-.233 0-.605.012-1.129.023-.512.012-.85.024-1.013.024h-2.282v.197h1.293v9.628h-1.293v.198h2.282c.163 0 .5.012 1.025.023.523.012.896.024 1.129.024 1.106 0 2.049-.245 2.806-.722.768-.477 1.152-1.164 1.152-2.037.012-.792-.28-1.397-.85-1.851zm-4.202-5.273c.058 0 .15-.012.29-.023.14-.012.245-.024.315-.024.675 0 1.14.175 1.409.524.267.35.395.955.395 1.828 0 .652-.093 1.118-.279 1.409-.28.419-.815.628-1.595.628h-.535v-4.342zm2.305 9.104c-.315.384-.827.57-1.549.57a4.92 4.92 0 01-.745-.046v-5.088h.885c.559 0 1.001.198 1.35.594.35.396.524 1.013.524 1.84 0 1.047-.163 1.757-.465 2.13zm15.565-9.104h1.222l-2.584 4.925-2.876-4.925h1.106v-.198h-4.54v.198h1.106l3.271 5.705v3.935h-1.292v.198h4.645v-.198h-1.316v-4.47l2.725-5.17h1.222v-.198h-2.69v.198zm23.19 8.871a2.789 2.789 0 01-1.955.757h-2.364v-5.088h.955c.489 0 .896.163 1.222.478.326.314.571.85.734 1.606h.186v-4.377h-.186c-.187.85-.454 1.42-.815 1.688-.349.268-.838.407-1.467.407h-.629v-4.354h2.294a2.37 2.37 0 011.583.57c.454.385.792.932 1.024 1.642h.187v-2.41h-8.417v.198h1.292v9.651H97.43v.198h8.999V82.63h-.186c-.222.908-.606 1.618-1.165 2.12zm12.317-2.048h-.023l-2.445-7.02h-3.609v.197h1.293v9.64h-1.293v.198h2.818v-.198h-1.304v-9.64h.035l3.469 9.838h.233l3.457-9.838h.035v9.64h-1.28v.198h4.61v-.198H122.1v-9.64h1.292v-.198h-3.516l-2.48 7.02zm10.723-6.823h1.292v9.64h-1.292v.198h4.633v-.198h-1.292v-9.64h1.292v-.198h-4.633v.198zm16.228 0h1.293v6.508h-.024l-4.691-6.706h-3.33v.198h1.304v9.64h-1.304v.198h2.817v-.198h-1.292V76.68h.023l6.345 9.034h.373v-9.837h1.304v-.198h-2.818v.198zm18.709-.582h-.384l-4.191 10.221h-1.2v.198h2.678v-.198h-1.257l1.56-3.772h3.376l1.63 3.772h-1.304v.198h4.727v-.198h-1.211l-4.424-10.221zm-2.713 6.252l1.572-3.842 1.665 3.842h-3.237zm31.317-6.252h-.384l-4.191 10.221h-1.2v.198h2.678v-.198h-1.257l1.56-3.772h3.376l1.63 3.772h-1.304v.198h4.727v-.198h-1.211l-4.424-10.221zm-2.724 6.252l1.571-3.842 1.665 3.842h-3.236zm20.454 3.166c-.558.536-1.187.803-1.92.803h-2.364V75.89h1.292v-.198h-4.633v.198h1.292v9.627h-1.292v.198h8.929v-3.178h-.186c-.175.908-.559 1.642-1.118 2.177zm11.526-9.418h-.384l-4.192 10.221h-1.199v.198h2.678v-.198h-1.257l1.56-3.772h3.376l1.63 3.772h-1.304v.198h4.726v-.198h-1.21l-4.424-10.221zm-2.713 6.252l1.572-3.842 1.665 3.842h-3.237zm22.504 3.69l-.116.116a1.303 1.303 0 01-.105.094.563.563 0 01-.14.093c-.035.011-.081.023-.14.046a.876.876 0 01-.186.023c-.291 0-.477-.116-.559-.36-.105-.361-.174-.967-.221-1.793-.058-.943-.175-1.572-.361-1.886a1.93 1.93 0 00-.791-.734c-.303-.174-.955-.337-1.968-.523v-.07c.885-.082 1.56-.315 2.049-.699.489-.384.722-.873.722-1.49 0-.757-.314-1.35-.955-1.77-.628-.419-1.478-.628-2.538-.628-.233 0-.605.011-1.129.023-.512.012-.85.023-1.013.023h-2.282v.198h1.293v9.616h-1.293v.198h4.634v-.198h-1.292V80.43h.989c.606 0 1.048.198 1.327.594.315.407.489 1.164.489 2.235.012 1.036.198 1.735.582 2.107.361.361.908.547 1.619.547.395 0 .698-.046.931-.128.221-.081.466-.268.722-.535l-.14-.128-.128.116zm-5.961-5.006h-.454v-4.354c.059 0 .152-.012.291-.023.14-.012.245-.024.315-.024.675 0 1.141.175 1.408.524.268.35.396.955.396 1.828 0 .803-.163 1.362-.477 1.653-.291.268-.78.396-1.479.396zm15.1-4.773c-1.339 0-2.561.512-3.644 1.537-1.083 1.024-1.63 2.27-1.63 3.736 0 1.42.524 2.643 1.572 3.656 1.047 1.025 2.282 1.537 3.713 1.537 1.398 0 2.632-.524 3.679-1.56 1.048-1.036 1.584-2.27 1.584-3.679 0-1.49-.524-2.736-1.56-3.737-1.048-.99-2.282-1.49-3.714-1.49zm2.724 8.242c-.175.652-.477 1.153-.92 1.514-.407.337-1.001.512-1.804.512-1.141 0-1.933-.373-2.352-1.13-.419-.756-.629-2.048-.629-3.865 0-1.245.082-2.211.245-2.875.163-.675.431-1.176.792-1.525.454-.443 1.094-.664 1.932-.664 1.432 0 2.34.629 2.713 1.898.174.57.268 1.583.268 3.038 0 1.41-.082 2.445-.245 3.097zm13.877-7.823h1.269l-2.968 7.637-2.923-7.637h1.363v-.198h-4.727v.198h1.199l3.888 10.233h.408l3.97-10.233h1.211v-.198h-2.69v.198zm-88.699 6.089v.198h1.455v.686c0 1.095-.163 1.84-.477 2.259-.315.42-.803.617-1.455.617-1.141 0-1.945-.384-2.375-1.153-.408-.698-.606-1.804-.606-3.306v-1.42c0-1.339.221-2.375.675-3.097.42-.663 1.106-1.024 2.084-1.07.07 0 .14-.013.222-.013.756 0 1.373.233 1.862.687.489.454.897 1.2 1.199 2.212h.187v-2.875h-.222c-.023.116-.069.198-.139.244a.626.626 0 01-.303.058c-.105 0-.454-.081-1.059-.256-.606-.174-1.118-.256-1.537-.256-.07 0-.14 0-.21.012-1.082.046-2.095.442-3.026 1.176a5.375 5.375 0 00-1.479 1.793 4.97 4.97 0 00-.547 2.293c0 1.397.524 2.62 1.56 3.644 1.036 1.036 2.282 1.548 3.702 1.548.477 0 .92-.07 1.339-.221.407-.151.78-.291 1.082-.43.315-.14.571-.21.792-.21.268 0 .431.105.466.326h.256v-3.225h.92v-.198h-4.366v-.023z" fill="#282828"/><path d="M0 .298v60.573h330V.298H0zm329.301 59.874H.699V.997H329.3v59.175z" fill="#282828"/></svg>