<?xml version="1.0" encoding="utf-8"?>
<!-- Generator: Adobe Illustrator 28.0.0, SVG Export Plug-In . SVG Version: 6.00 Build 0)  -->
<svg version="1.1" id="Layer_1" xmlns="http://www.w3.org/2000/svg" xmlns:xlink="http://www.w3.org/1999/xlink" x="0px" y="0px"
	 viewBox="0 0 500 500" style="enable-background:new 0 0 500 500;" xml:space="preserve">
<style type="text/css">
	.st0{fill-rule:evenodd;clip-rule:evenodd;fill:#149547;}
	.st1{fill-rule:evenodd;clip-rule:evenodd;fill:#F47622;}
	.st2{fill:#2B2B2B;}
</style>
<g>
	<path class="st0" d="M417.3,170.18c-1.37-7.45,2.67-14.48,7.34-19.94c5.04,4.36,9.91,9.77,10.77,16.66
		c0.98,6.68-2.29,13.15-6.79,17.9C423.58,181.18,418.4,176.63,417.3,170.18L417.3,170.18z M357.77,197.56
		c-12.98,9.45-21.28,24.52-23.23,40.39c7.95,0.19,15.93,0.03,23.9,0.09c1.63-7.8,5.62-15.16,11.82-20.24
		c10.12-8.71,25.51-10.47,37.36-4.3c9.58,4.72,16.26,14.17,18.37,24.54c7.92-0.01,15.84,0,23.76,0
		c-2.1-21.23-16.83-40.57-36.85-48.02C394.83,182.95,373.27,185.84,357.77,197.56L357.77,197.56z M162.27,202.76
		c14.55-17.83,42.42-21.45,61.99-10.16c3.71,1.92,6.26,5.41,9.84,7.5c2.19,0.29,3.57-1.84,5.12-3.03
		c8.5-8.25,20.8-11.09,32.34-10.89c21.65-0.08,42.1,16.7,46.14,38c1.02,4.54,1.19,9.2,1.21,13.84c-8.17,0.02-16.35-0.01-24.52,0.02
		c0.17-5.98-0.54-12.31-4.3-17.2c-5.11-7.16-14.32-11.13-23.04-9.85c-8.71,1.19-16.36,7.8-19.03,16.15
		c-1.18,3.51-1.08,7.24-1.18,10.89c-8.16,0.01-16.31-0.05-24.47,0.03c0.2-6.1-0.62-12.56-4.5-17.52
		c-5.04-6.84-13.88-10.64-22.32-9.59c-8.81,0.98-16.54,7.57-19.38,15.87c-1.25,3.6-1.17,7.46-1.24,11.21
		c-8.2-0.03-16.41-0.01-24.61-0.01C149.68,225.31,153.53,212.22,162.27,202.76L162.27,202.76z M39.37,196.66
		c15.05-10.73,35.38-13.41,52.73-7.07c20.54,7.17,36.03,26.85,37.9,48.57c-7.9-0.24-15.78-0.07-23.67-0.1
		c-2.11-10.79-9.33-20.52-19.42-25.07c-11.8-5.64-26.73-3.59-36.56,5.04c-6.09,5.06-9.92,12.36-11.6,20.02
		c-7.92-0.01-15.84,0-23.76,0C16.72,221.59,25.77,206.09,39.37,196.66L39.37,196.66z M449.85,162.47
		c-9.38,5.29-14.15,15.77-16.5,25.85c9.88,4.41,21.82,5.84,31.69,0.67c10.11-5.12,15.95-15.5,19.96-25.67
		C474.11,158.47,460.69,156.44,449.85,162.47z"/>
	<path class="st1" d="M15.01,249.99c7.92,0,15.84,0,23.77,0c2.2,11.23,9.97,21.29,20.67,25.59c12.51,5.38,28.03,2.24,37.44-7.6
		c4.91-4.86,7.95-11.29,9.42-17.99c8.01,0,16.03-0.01,24.05,0c-0.09,13.55,0.15,27.1-0.1,40.64c-0.25,7.67-8.9,13.28-16.04,10.6
		c-4.49-1.34-7.23-5.51-8.47-9.8c-14.67,10.25-34.11,13.22-51.12,7.56C33.29,292.28,17.17,272.22,15.01,249.99L15.01,249.99z
		 M334.76,249.89c7.89,0.22,15.78,0.06,23.69,0.1c2.05,10.5,8.93,19.99,18.63,24.67c11.89,6.05,27.23,4.15,37.28-4.64
		c6.08-5.06,9.94-12.35,11.61-20.03c7.92,0,15.84,0,23.77,0c-1.74,16.42-10.73,31.9-24.31,41.32
		c-15.13,10.83-35.61,13.48-53.04,7.02C352,291.09,336.61,271.5,334.76,249.89L334.76,249.89z M294.33,249.98
		c8.18,0.02,16.35,0.01,24.53,0.01c-0.06,13.54,0.09,27.08-0.11,40.61c-0.16,6.15-5.93,11.36-12.03,11.21
		c-6.6,0.35-12.66-5.67-12.38-12.28C294.28,276.35,294.34,263.16,294.33,249.98L294.33,249.98z M222.35,249.91
		c8.18,0.16,16.35,0.07,24.53,0.06c0.03,13.16,0.05,26.32,0.01,39.48c0.33,6.39-5.32,12.28-11.68,12.38
		c-4.45,0.27-8.83-2.13-11.17-5.88c-1.97-2.92-1.74-6.58-1.78-9.93C222.36,273.98,222.22,261.95,222.35,249.91L222.35,249.91z
		 M150.35,249.99c8.22,0,16.42,0.01,24.64-0.01c-0.01,13.17,0.06,26.36-0.01,39.53c0.2,5.21-3.47,10.03-8.32,11.7
		c-7.19,2.71-16.02-2.95-16.23-10.69C150.23,277.02,150.42,263.49,150.35,249.99z"/>
	<g>
		<path class="st2" d="M130.37,323.33v-2.08c0-4.64,2.45-7.28,7.06-7.28c2.3,0,4.34,0.98,5.13,1.7c0.3,0.19,0.38,0.68,0.19,0.98
			l-1.32,2.3c-0.19,0.34-0.68,0.45-1.06,0.23c-0.57-0.38-1.77-0.91-2.72-0.91c-2.19,0-2.57,1.17-2.57,2.98v2.08h4.76
			c0.49,0,0.83,0.34,0.83,0.83v2.57c0,0.42-0.34,0.83-0.83,0.83h-4.76v12.38c0,0.45-0.38,0.83-0.83,0.83h-3.06
			c-0.45,0-0.83-0.38-0.83-0.83v-12.38"/>
		<path class="st2" d="M143.81,324.16c0-0.49,0.42-0.83,0.83-0.83h1.4c0.42,0,0.6,0.19,0.75,0.57l0.64,1.7
			c0.6-0.87,2.23-2.64,4.91-2.64c2.08,0,3.77,0.57,3.28,1.7l-1.13,2.57c-0.19,0.42-0.6,0.57-1.02,0.38
			c-0.42-0.19-0.83-0.34-1.62-0.34c-1.89,0-3.02,1.21-3.32,1.81v10.87c0,0.64-0.42,0.83-0.98,0.83h-2.91
			c-0.41,0-0.83-0.38-0.83-0.83V324.16z"/>
		<path class="st2" d="M165.7,322.96c4.53,0,8,3.36,8,8.08c0,0.26-0.04,0.87-0.08,1.13c-0.04,0.45-0.45,0.79-0.83,0.79h-11.17
			c0.04,2.15,1.81,4.04,4.34,4.04c1.74,0,2.94-0.64,3.74-1.28c0.42-0.34,0.87-0.38,1.13,0l1.47,1.96c0.3,0.34,0.34,0.76-0.08,1.13
			c-1.51,1.28-3.66,2.38-6.49,2.38c-5.21,0-8.83-4.15-8.83-9.13C156.91,327.15,160.53,322.96,165.7,322.96z M168.95,329.86
			c-0.08-1.7-1.43-3.02-3.36-3.02c-2.11,0-3.47,1.28-3.7,3.02H168.95z"/>
		<path class="st2" d="M176.72,339.6c-0.23-0.15-0.42-0.57-0.23-0.94l1.13-2.26c0.19-0.41,0.6-0.57,1.02-0.3
			c0.79,0.49,2.04,1.13,3.85,1.13c1.32,0,1.92-0.49,1.92-1.25c0-0.79-0.98-1.51-3.28-2.42c-3.36-1.28-4.87-2.87-4.87-5.51
			s2-5.1,6.27-5.1c2.57,0,4.23,0.68,5.17,1.28c0.38,0.3,0.6,0.76,0.38,1.21l-0.98,2c-0.26,0.42-0.72,0.49-1.09,0.34
			c-0.83-0.38-2.04-0.87-3.47-0.87c-1.17,0-1.66,0.57-1.66,1.13c0,0.79,0.87,1.21,2.49,1.89c3.36,1.36,5.78,2.57,5.78,6.04
			c0,2.75-2.34,5.21-6.72,5.21C179.51,341.19,177.7,340.28,176.72,339.6z"/>
		<path class="st2" d="M192.84,315.18c0-0.42,0.42-0.83,0.83-0.83h3.06c0.45,0,0.83,0.42,0.83,0.83v9.25
			c0.87-0.76,2.38-1.47,4.45-1.47c5.55,0,7.06,3.85,7.06,8.23v8.76c0,0.45-0.42,0.83-0.83,0.83h-3.06c-0.45,0-0.83-0.38-0.83-0.83
			v-8.79c0-2.42-1.09-3.89-3.17-3.89c-2.04,0-3.17,1.28-3.62,3.06v9.62c0,0.49-0.23,0.83-0.91,0.83h-2.98
			c-0.41,0-0.83-0.38-0.83-0.83V315.18z"/>
		<path class="st2" d="M224.16,323.33v-2.08c0-4.64,2.45-7.28,7.06-7.28c2.3,0,4.34,0.98,5.13,1.7c0.3,0.19,0.38,0.68,0.19,0.98
			l-1.32,2.3c-0.19,0.34-0.68,0.45-1.06,0.23c-0.57-0.38-1.77-0.91-2.72-0.91c-2.19,0-2.57,1.17-2.57,2.98v2.08h4.76
			c0.49,0,0.83,0.34,0.83,0.83v2.57c0,0.42-0.34,0.83-0.83,0.83h-4.76v12.38c0,0.45-0.38,0.83-0.83,0.83h-3.06
			c-0.45,0-0.83-0.38-0.83-0.83v-12.38"/>
		<path class="st2" d="M245.18,322.96c4.94,0,8.94,4.15,8.94,9.06c0,4.98-4,9.17-8.94,9.17c-4.91,0-8.91-4.19-8.91-9.17
			C236.28,327.11,240.28,322.96,245.18,322.96z M245.18,336.88c2.53,0,4.57-2.19,4.57-4.87c0-2.64-2.04-4.76-4.57-4.76
			c-2.53,0-4.53,2.11-4.53,4.76C240.66,334.7,242.66,336.88,245.18,336.88z"/>
		<path class="st2" d="M257.86,324.16c0-0.49,0.42-0.83,0.83-0.83h1.4c0.42,0,0.6,0.19,0.76,0.57l0.64,1.7
			c0.6-0.87,2.23-2.64,4.91-2.64c2.08,0,3.77,0.57,3.28,1.7l-1.13,2.57c-0.19,0.42-0.6,0.57-1.02,0.38
			c-0.42-0.19-0.83-0.34-1.62-0.34c-1.89,0-3.02,1.21-3.32,1.81v10.87c0,0.64-0.41,0.83-0.98,0.83h-2.91
			c-0.42,0-0.83-0.38-0.83-0.83V324.16z"/>
		<path class="st2" d="M279.11,324.47c-0.23-0.6,0.08-1.13,0.76-1.13h3.62c0.38,0,0.64,0.19,0.72,0.49l3.13,10.42h0.08l3.96-10.42
			c0.26-0.45,0.57-0.49,1.09-0.49h3.21c0.68,0,1.02,0.57,0.76,1.13l-10.27,24.76c-0.11,0.26-0.41,0.53-0.75,0.53h-3.62
			c-0.68,0-1.02-0.57-0.76-1.17l3.51-8.83L279.11,324.47z"/>
		<path class="st2" d="M306.97,322.96c4.94,0,8.95,4.15,8.95,9.06c0,4.98-4,9.17-8.95,9.17c-4.91,0-8.91-4.19-8.91-9.17
			C298.06,327.11,302.06,322.96,306.97,322.96z M306.97,336.88c2.53,0,4.57-2.19,4.57-4.87c0-2.64-2.04-4.76-4.57-4.76
			c-2.53,0-4.53,2.11-4.53,4.76C302.44,334.7,304.44,336.88,306.97,336.88z"/>
		<path class="st2" d="M319.46,324.16c0-0.49,0.38-0.83,0.83-0.83h3.06c0.45,0,0.83,0.34,0.83,0.83v9.25c0,2.3,0.79,3.47,2.94,3.47
			c1.92,0,2.83-1.74,3.1-3.25v-9.47c0-0.68,0.23-0.83,0.94-0.83h2.94c0.45,0,0.83,0.34,0.83,0.83v15.78c0,0.45-0.38,0.83-0.83,0.83
			h-1.36c-0.42,0-0.72-0.3-0.83-0.64l-0.49-1.47c-0.91,0.94-2.72,2.53-5.4,2.53c-5.4,0-6.57-3.36-6.57-7.78V324.16z"/>
	</g>
</g>
</svg>
