<svg width="500" height="500" viewBox="0 0 500 500" fill="none" xmlns="http://www.w3.org/2000/svg">
<rect width="500" height="500" fill="#0B0A0A"/>
<path d="M115.048 321.741H266.977C267.046 321.741 267.113 321.715 267.163 321.668C267.212 321.622 267.239 321.559 267.239 321.493V297.548C267.239 297.483 267.267 297.42 267.316 297.374C267.366 297.327 267.433 297.301 267.502 297.301L274.719 297.307C274.789 297.307 274.855 297.333 274.905 297.379C274.954 297.426 274.982 297.488 274.982 297.554V328.753C274.982 328.818 274.954 328.881 274.905 328.928C274.855 328.974 274.789 329 274.719 329H107.269C107.199 329 107.132 328.974 107.083 328.928C107.034 328.881 107.006 328.818 107.006 328.753L107 171.247C107 171.182 107.028 171.119 107.077 171.072C107.126 171.026 107.193 171 107.263 171L274.737 171.011C274.807 171.011 274.874 171.038 274.923 171.084C274.972 171.13 275 171.193 275 171.259V202.434C275 202.5 274.972 202.563 274.923 202.609C274.874 202.656 274.807 202.682 274.737 202.682L267.502 202.728C267.468 202.728 267.434 202.721 267.402 202.709C267.37 202.696 267.341 202.678 267.316 202.655C267.292 202.632 267.273 202.605 267.259 202.575C267.246 202.545 267.239 202.513 267.239 202.48L267.246 178.535C267.246 178.503 267.239 178.471 267.226 178.441C267.212 178.411 267.193 178.383 267.169 178.361C267.144 178.338 267.115 178.319 267.083 178.307C267.052 178.295 267.017 178.288 266.983 178.288L115.048 178.3C114.978 178.3 114.911 178.326 114.862 178.372C114.813 178.418 114.785 178.481 114.785 178.547V321.493C114.785 321.559 114.813 321.622 114.862 321.668C114.911 321.715 114.978 321.741 115.048 321.741Z" fill="#FFFF01"/>
<path d="M207.989 240.619C213.354 242.654 216.934 245.927 218.729 250.438C221.659 257.786 219.473 266.534 212.681 271.509C207.233 275.494 198.836 276.922 191.719 276.968C185.521 277.011 179.381 277.011 173.3 276.968C173.221 276.967 173.147 276.937 173.092 276.885C173.037 276.834 173.006 276.764 173.006 276.692L173 210.328C173 210.14 173.1 210.046 173.3 210.046C179.36 209.981 185.394 209.985 191.4 210.058C203.878 210.207 215.605 214.694 215.436 228.031C215.362 233.789 212.65 236.905 207.926 240.136C207.639 240.331 207.66 240.493 207.989 240.619ZM186.152 222.151L186.202 235.603C186.202 235.655 186.224 235.705 186.264 235.742C186.304 235.779 186.358 235.799 186.414 235.799L194.474 235.776C196.545 235.769 198.528 235.104 199.988 233.927C201.448 232.75 202.265 231.157 202.259 229.499V228.163C202.257 227.342 202.052 226.529 201.656 225.771C201.261 225.013 200.683 224.325 199.956 223.747C199.228 223.168 198.365 222.71 197.416 222.399C196.467 222.087 195.45 221.929 194.424 221.932L186.364 221.955C186.337 221.955 186.309 221.96 186.283 221.97C186.257 221.98 186.234 221.994 186.214 222.013C186.195 222.031 186.179 222.052 186.168 222.076C186.158 222.1 186.152 222.125 186.152 222.151ZM186.227 247.898L186.127 264.863C186.126 264.893 186.132 264.922 186.143 264.949C186.155 264.976 186.172 265.001 186.194 265.022C186.216 265.043 186.243 265.06 186.272 265.071C186.301 265.082 186.333 265.088 186.364 265.088L196.449 265.134C199.156 265.147 201.756 264.321 203.679 262.837C205.602 261.353 206.689 259.333 206.702 257.222L206.714 255.747C206.721 254.701 206.463 253.664 205.955 252.695C205.448 251.726 204.701 250.844 203.757 250.099C202.813 249.355 201.69 248.763 200.453 248.356C199.217 247.95 197.89 247.738 196.549 247.731L186.464 247.685C186.403 247.685 186.343 247.707 186.299 247.747C186.254 247.787 186.229 247.841 186.227 247.898Z" fill="#FFFF01"/>
<path d="M284.635 259.58H258.487C258.44 259.579 258.394 259.592 258.354 259.617C258.315 259.642 258.285 259.677 258.268 259.718L251.071 276.862C251.054 276.903 251.023 276.939 250.984 276.963C250.945 276.988 250.899 277.001 250.852 277H237.232C237.194 277 237.156 276.991 237.122 276.974C237.088 276.957 237.059 276.932 237.038 276.902C237.017 276.871 237.004 276.837 237.001 276.8C236.998 276.764 237.004 276.728 237.019 276.695L266.354 210.138C266.372 210.099 266.402 210.065 266.439 210.042C266.477 210.018 266.522 210.006 266.567 210.006L276.536 210C276.582 210 276.626 210.012 276.664 210.036C276.702 210.06 276.732 210.093 276.75 210.133L305.981 276.695C305.996 276.728 306.002 276.764 305.999 276.8C305.996 276.837 305.983 276.871 305.962 276.902C305.941 276.932 305.912 276.957 305.878 276.974C305.844 276.991 305.806 277 305.768 277L292.234 276.994C292.188 276.994 292.143 276.98 292.105 276.956C292.067 276.931 292.038 276.896 292.021 276.856L284.854 259.718C284.837 259.677 284.807 259.642 284.768 259.617C284.728 259.592 284.682 259.579 284.635 259.58ZM263.435 247.525C263.419 247.563 263.413 247.605 263.418 247.646C263.423 247.687 263.439 247.726 263.463 247.76C263.488 247.794 263.521 247.822 263.56 247.841C263.598 247.861 263.641 247.871 263.685 247.871H279.468C279.511 247.871 279.554 247.861 279.593 247.841C279.631 247.822 279.664 247.794 279.689 247.76C279.714 247.726 279.729 247.687 279.734 247.646C279.739 247.605 279.733 247.563 279.717 247.525L271.826 228.371C271.806 228.323 271.772 228.282 271.728 228.253C271.683 228.225 271.63 228.209 271.576 228.209C271.522 228.209 271.469 228.225 271.425 228.253C271.38 228.282 271.346 228.323 271.326 228.371L263.435 247.525Z" fill="#FFFF01"/>
<path d="M343.363 259.681L336.095 276.885C336.08 276.919 336.055 276.948 336.022 276.969C335.99 276.99 335.951 277 335.912 277L322.197 276.983C322.165 276.983 322.133 276.976 322.105 276.962C322.076 276.948 322.052 276.927 322.034 276.902C322.016 276.877 322.005 276.848 322.001 276.818C321.998 276.788 322.002 276.757 322.014 276.729L351.417 210.115C351.431 210.082 351.456 210.053 351.487 210.033C351.518 210.012 351.555 210.001 351.593 210H361.577C361.615 210.001 361.652 210.012 361.684 210.033C361.715 210.053 361.739 210.082 361.754 210.115L390.986 276.735C390.998 276.763 391.002 276.794 390.999 276.824C390.995 276.854 390.984 276.883 390.966 276.908C390.948 276.933 390.924 276.954 390.895 276.968C390.867 276.982 390.835 276.989 390.803 276.988L377.198 276.983C377.158 276.983 377.12 276.972 377.087 276.952C377.055 276.931 377.03 276.902 377.015 276.867L369.856 259.681C369.841 259.647 369.816 259.617 369.783 259.597C369.751 259.576 369.713 259.565 369.673 259.566H343.546C343.507 259.565 343.468 259.576 343.436 259.597C343.403 259.617 343.378 259.647 343.363 259.681ZM348.416 247.582C348.403 247.614 348.398 247.648 348.403 247.681C348.407 247.715 348.42 247.747 348.44 247.775C348.461 247.803 348.488 247.826 348.52 247.841C348.552 247.857 348.587 247.865 348.623 247.864H364.572C364.608 247.865 364.643 247.857 364.675 247.841C364.707 247.826 364.734 247.803 364.755 247.775C364.775 247.747 364.788 247.715 364.792 247.681C364.797 247.648 364.792 247.614 364.779 247.582L356.804 228.241C356.789 228.2 356.761 228.165 356.724 228.14C356.687 228.115 356.643 228.102 356.597 228.102C356.552 228.102 356.508 228.115 356.47 228.14C356.433 228.165 356.405 228.2 356.39 228.241L348.416 247.582Z" fill="#FFFF01"/>
<path d="M178.104 284.773C178.656 285.122 179.265 285.36 179.558 285.872C181.679 289.595 175.647 290.318 172.373 289.891C172.124 289.855 172 289.748 172 289.568V280.332C172 280.146 172.127 280.045 172.38 280.031C173.521 279.971 174.634 279.998 175.718 280.11C178.892 280.432 180.225 282.355 178.047 284.335C177.87 284.494 177.889 284.64 178.104 284.773ZM173.626 281.573L173.612 283.844C173.612 283.959 173.674 284.07 173.784 284.152C173.894 284.234 174.043 284.281 174.199 284.282L175.532 284.288C175.789 284.289 176.045 284.252 176.283 284.178C176.522 284.104 176.739 283.996 176.922 283.858C177.105 283.721 177.25 283.558 177.35 283.378C177.45 283.197 177.501 283.004 177.502 282.809V282.629C177.504 282.237 177.301 281.859 176.937 281.58C176.573 281.301 176.078 281.143 175.561 281.14L174.228 281.135C174.149 281.134 174.071 281.145 173.998 281.167C173.925 281.188 173.859 281.221 173.803 281.261C173.747 281.302 173.703 281.351 173.672 281.404C173.642 281.458 173.626 281.515 173.626 281.573ZM173.648 285.761L173.633 288.359C173.633 288.466 173.691 288.568 173.793 288.643C173.895 288.718 174.034 288.76 174.178 288.76L175.983 288.766C176.29 288.766 176.594 288.725 176.878 288.643C177.162 288.562 177.42 288.442 177.637 288.29C177.855 288.139 178.028 287.958 178.146 287.76C178.264 287.562 178.325 287.349 178.326 287.134V287.007C178.328 286.573 178.084 286.156 177.647 285.848C177.21 285.54 176.617 285.366 175.998 285.365L174.192 285.36C174.048 285.36 173.909 285.402 173.807 285.477C173.705 285.552 173.648 285.654 173.648 285.761Z" fill="#FFFF01"/>
<path d="M192.551 279.427L192.38 279.427C192.099 279.426 191.871 279.639 191.87 279.903L191.852 289.782C191.851 290.045 192.079 290.259 192.359 290.259L192.531 290.26C192.812 290.26 193.04 290.047 193.04 289.784L193.059 279.904C193.059 279.641 192.832 279.427 192.551 279.427Z" fill="#FFFF01"/>
<path d="M220.095 286.869L215.955 286.874C215.682 286.874 215.498 286.987 215.402 287.213L214.392 289.628C214.381 289.655 214.363 289.68 214.339 289.701C214.315 289.722 214.286 289.738 214.254 289.747L213.431 289.987C213.372 290.003 213.308 290.004 213.248 289.991C213.187 289.978 213.133 289.95 213.09 289.911C213.047 289.873 213.018 289.825 213.006 289.773C212.994 289.721 213 289.667 213.022 289.617L217.157 280.525C217.226 280.37 217.348 280.237 217.507 280.143C217.666 280.049 217.853 279.999 218.045 280C218.237 280.001 218.425 280.052 218.582 280.146C218.74 280.241 218.861 280.375 218.93 280.53L222.962 289.539C223.058 289.754 222.972 289.864 222.704 289.867L222.103 289.872C221.826 289.876 221.642 289.765 221.55 289.539L220.552 287.145C220.476 286.961 220.324 286.869 220.095 286.869ZM216.406 285.355C216.386 285.403 216.381 285.455 216.389 285.506C216.398 285.556 216.421 285.604 216.456 285.646C216.49 285.687 216.536 285.721 216.589 285.744C216.642 285.766 216.701 285.777 216.76 285.776L219.344 285.75C219.402 285.75 219.46 285.737 219.511 285.714C219.563 285.69 219.607 285.657 219.64 285.616C219.674 285.574 219.695 285.527 219.703 285.477C219.712 285.427 219.706 285.376 219.687 285.329L218.353 282.128C218.327 282.066 218.279 282.013 218.217 281.976C218.155 281.938 218.081 281.918 218.005 281.919C217.929 281.92 217.856 281.941 217.794 281.979C217.733 282.017 217.686 282.071 217.662 282.133L216.406 285.355Z" fill="#FFFF01"/>
<path d="M275.722 283.914L275.715 289.677C275.715 289.727 275.702 289.775 275.676 289.819C275.65 289.863 275.613 289.902 275.567 289.932C275.521 289.962 275.468 289.983 275.41 289.993C275.353 290.003 275.294 290.002 275.238 289.99L274.797 289.902C274.701 289.881 274.616 289.834 274.555 289.768C274.495 289.701 274.462 289.62 274.462 289.537L274.419 283.998C274.419 283.921 274.393 283.846 274.343 283.782C274.294 283.718 274.223 283.668 274.14 283.638L273.185 283.289C273.131 283.269 273.086 283.237 273.053 283.196C273.02 283.155 273.002 283.108 273 283.059C272.998 283.01 273.013 282.961 273.042 282.919C273.071 282.876 273.114 282.842 273.166 282.819L274.208 282.381C274.257 282.36 274.299 282.329 274.329 282.291C274.36 282.252 274.378 282.208 274.382 282.162L274.493 280.509C274.489 280.377 274.547 280.25 274.655 280.155C274.763 280.059 274.911 280.004 275.067 280C275.223 279.997 275.375 280.046 275.488 280.136C275.602 280.227 275.668 280.351 275.672 280.483C275.738 281.001 275.732 281.507 275.653 282C275.62 282.223 275.728 282.376 275.976 282.459L276.782 282.736C277.001 282.812 277.055 282.936 276.943 283.106C276.762 283.391 276.462 283.56 276.044 283.612C275.833 283.636 275.726 283.737 275.722 283.914Z" fill="#FFFF01"/>
<path d="M299.034 283.495C298.57 283.54 298.235 283.382 298.029 283.018C298.01 282.982 298 282.941 298 282.9C298.001 282.859 298.012 282.819 298.032 282.784C298.053 282.748 298.082 282.718 298.118 282.696C298.154 282.674 298.195 282.661 298.237 282.658C299.289 282.567 299.673 282.03 299.388 281.05C299.313 280.799 299.304 280.6 299.36 280.452C299.502 280.046 299.815 279.914 300.298 280.055C300.369 280.075 300.434 280.109 300.49 280.155C300.546 280.201 300.592 280.257 300.624 280.321C300.655 280.384 300.673 280.453 300.675 280.523C300.676 280.592 300.663 280.662 300.635 280.727C300.103 281.916 300.47 282.565 301.735 282.674C301.8 282.681 301.861 282.707 301.908 282.75C301.956 282.792 301.987 282.848 301.997 282.909C302.006 282.969 301.994 283.031 301.962 283.083C301.93 283.136 301.88 283.176 301.819 283.198L300.752 283.606C300.684 283.632 300.626 283.677 300.585 283.736C300.544 283.794 300.522 283.863 300.522 283.934L300.528 289.575C300.528 289.663 300.498 289.748 300.442 289.816C300.386 289.884 300.307 289.932 300.219 289.951C299.643 290.082 299.356 289.951 299.36 289.559C299.386 287.002 299.39 285.073 299.371 283.775C299.367 283.563 299.255 283.47 299.034 283.495Z" fill="#FFFF01"/>
<path d="M315.572 287.216C315.302 288.012 314.945 288.768 314.502 289.484C314.352 289.73 314.159 289.885 313.925 289.947C313.659 290.024 313.411 290.017 313.181 289.927C313.108 289.899 313.052 289.85 313.022 289.79C312.993 289.731 312.993 289.664 313.021 289.603L317.531 280.523C317.609 280.368 317.745 280.236 317.921 280.142C318.096 280.049 318.304 279.999 318.516 280C318.728 280.001 318.935 280.051 319.11 280.146C319.285 280.24 319.42 280.373 319.497 280.528L323.966 289.624C324.05 289.795 323.977 289.899 323.747 289.937C322.06 290.198 321.801 288.024 321.296 287.154C321.247 287.069 321.168 286.998 321.069 286.948C320.97 286.898 320.856 286.872 320.739 286.872L316.076 286.903C315.96 286.905 315.848 286.937 315.757 286.993C315.666 287.049 315.601 287.128 315.572 287.216ZM316.555 285.418C316.534 285.458 316.526 285.502 316.532 285.545C316.538 285.588 316.557 285.629 316.588 285.665C316.618 285.701 316.66 285.731 316.709 285.751C316.757 285.772 316.812 285.782 316.867 285.783L320.068 285.804C320.123 285.804 320.177 285.794 320.226 285.774C320.274 285.754 320.316 285.725 320.348 285.689C320.379 285.654 320.399 285.613 320.406 285.57C320.413 285.528 320.406 285.484 320.387 285.444L318.819 282.212C318.795 282.162 318.752 282.119 318.696 282.088C318.641 282.058 318.574 282.041 318.506 282.04C318.438 282.04 318.371 282.055 318.314 282.085C318.258 282.115 318.214 282.157 318.188 282.207L316.555 285.418Z" fill="#FFFF01"/>
<path d="M372.522 283.633L371.264 283.297C371.186 283.277 371.118 283.238 371.071 283.187C371.023 283.135 370.999 283.074 371 283.01C371.002 282.947 371.029 282.885 371.079 282.834C371.129 282.783 371.199 282.744 371.278 282.724L372.591 282.409C372.661 282.392 372.721 282.359 372.764 282.314C372.806 282.27 372.828 282.216 372.827 282.162L372.799 280.434C372.799 280.352 372.829 280.272 372.886 280.202C372.943 280.133 373.025 280.077 373.122 280.042C373.218 280.007 373.325 279.993 373.431 280.003C373.537 280.013 373.636 280.046 373.718 280.097L374.126 280.35C374.31 280.465 374.363 280.609 374.285 280.78C373.774 281.919 374.244 282.568 375.695 282.729C375.773 282.739 375.845 282.768 375.9 282.812C375.955 282.856 375.989 282.912 375.998 282.971C376.007 283.03 375.989 283.09 375.948 283.14C375.907 283.191 375.845 283.229 375.771 283.249L374.534 283.622C374.442 283.649 374.363 283.696 374.308 283.757C374.252 283.818 374.222 283.89 374.223 283.964L374.216 289.564C374.213 289.646 374.178 289.725 374.115 289.791C374.052 289.857 373.964 289.906 373.863 289.932C373.269 290.089 372.967 289.974 372.958 289.585C372.903 287.697 372.85 285.811 372.799 283.927C372.794 283.78 372.702 283.682 372.522 283.633Z" fill="#FFFF01"/>
<path d="M358 281C358.552 281 359 280.776 359 280.5C359 280.224 358.552 280 358 280C357.448 280 357 280.224 357 280.5C357 280.776 357.448 281 358 281Z" fill="#FFFF01"/>
<path d="M232.03 284.471C230.933 283.91 230.198 282.919 228.628 282.897C226.439 282.87 225.079 284.901 225.437 286.546C225.896 288.693 228.564 289.639 230.652 288.274C231.116 287.97 231.579 287.651 232.043 287.317C232.117 287.265 232.209 287.236 232.305 287.234C232.4 287.233 232.493 287.259 232.57 287.308C232.646 287.357 232.701 287.427 232.726 287.507C232.751 287.586 232.744 287.67 232.707 287.746C231.156 290.773 226.343 290.674 224.6 287.911C222.985 285.346 224.798 282.363 228.015 282.028C229.552 281.87 231.137 282.389 232.771 283.585C232.894 283.673 232.974 283.798 232.995 283.934C233.015 284.07 232.975 284.208 232.881 284.32C232.787 284.432 232.648 284.51 232.49 284.538C232.332 284.566 232.168 284.542 232.03 284.471Z" fill="#FFFF01"/>
<path d="M239.699 283.352C234.359 280.907 233.546 290.307 239.159 288.742C239.996 288.509 240.652 287.802 241.419 287.319C241.475 287.284 241.541 287.267 241.608 287.27C241.675 287.273 241.739 287.296 241.79 287.336C241.842 287.375 241.879 287.429 241.896 287.489C241.913 287.55 241.909 287.614 241.884 287.672C240.147 291.568 234.47 290.177 234.028 286.428C233.528 282.222 239.856 280.125 241.965 284.178C241.995 284.236 242.006 284.301 241.997 284.364C241.987 284.428 241.958 284.487 241.913 284.535C241.868 284.583 241.808 284.618 241.742 284.635C241.676 284.651 241.606 284.65 241.541 284.629C240.722 284.379 240.402 283.673 239.699 283.352Z" fill="#FFFF01"/>
<path d="M253 286C253 287.061 252.526 288.078 251.682 288.828C250.838 289.579 249.693 290 248.5 290C247.307 290 246.162 289.579 245.318 288.828C244.474 288.078 244 287.061 244 286C244 284.939 244.474 283.922 245.318 283.172C246.162 282.421 247.307 282 248.5 282C249.693 282 250.838 282.421 251.682 283.172C252.526 283.922 253 284.939 253 286ZM248.304 288.98C248.72 289.001 249.137 288.943 249.531 288.811C249.925 288.678 250.288 288.473 250.6 288.207C250.911 287.942 251.166 287.621 251.348 287.262C251.53 286.904 251.637 286.515 251.662 286.119C251.712 285.318 251.427 284.534 250.868 283.938C250.31 283.343 249.524 282.985 248.684 282.943C248.268 282.922 247.851 282.98 247.457 283.113C247.063 283.245 246.7 283.45 246.388 283.716C246.076 283.981 245.822 284.303 245.64 284.661C245.457 285.019 245.351 285.408 245.326 285.804C245.276 286.605 245.561 287.389 246.12 287.985C246.678 288.58 247.464 288.938 248.304 288.98Z" fill="#FFFF01"/>
<path d="M325.404 284.341C325.921 284.942 326.602 285.309 327.446 285.44C327.624 285.469 327.778 285.544 327.907 285.664C331.197 288.714 325.598 292.234 324.07 288.151C323.891 287.674 324.055 287.462 324.56 287.517C324.651 287.527 324.737 287.561 324.809 287.616C324.881 287.671 324.935 287.745 324.965 287.829C325.3 288.721 325.95 289.077 326.915 288.894C327.08 288.864 327.236 288.802 327.375 288.712C327.514 288.622 327.632 288.506 327.722 288.371C327.813 288.235 327.874 288.083 327.902 287.924C327.93 287.765 327.924 287.603 327.885 287.446C327.668 286.593 326.938 286.26 326.003 286.008C322.627 285.09 324.731 280.088 328.654 282.794C328.78 282.881 328.883 283.014 328.943 283.168C329.004 283.322 329.016 283.486 328.979 283.626C328.942 283.766 328.857 283.873 328.742 283.926C328.627 283.978 328.49 283.972 328.358 283.909C327.89 283.691 327.539 283.415 327.303 283.084C327.236 282.991 327.147 282.917 327.042 282.866C326.937 282.815 326.821 282.791 326.704 282.794C325.959 282.812 325.492 283.175 325.302 283.882C325.256 284.053 325.29 284.206 325.404 284.341Z" fill="#FFFF01"/>
<path d="M331.915 283.251C331.369 283.895 331.538 284.465 332.421 284.962C332.606 285.07 332.813 285.14 333.04 285.173C337.791 285.875 336.267 290.346 332.378 289.979C330.711 289.82 329.921 288.994 330.006 287.5C330.008 287.459 330.027 287.419 330.06 287.386C330.092 287.353 330.137 287.328 330.189 287.314C330.24 287.301 330.296 287.3 330.349 287.311C330.401 287.322 330.448 287.344 330.483 287.376L331.716 288.51C331.958 288.733 332.299 288.881 332.675 288.928C333.051 288.974 333.436 288.916 333.76 288.764C334.315 288.504 334.622 288.139 334.679 287.668C334.807 286.609 332.991 286.242 332.001 285.869C327.164 284.044 333.048 279.897 335.875 283.299C335.953 283.387 335.985 283.493 335.967 283.597C335.949 283.702 335.88 283.797 335.775 283.866C335.67 283.935 335.535 283.973 335.396 283.972C335.257 283.971 335.124 283.931 335.02 283.861L333.746 283.045C333.611 282.96 333.455 282.898 333.287 282.862C333.119 282.826 332.942 282.818 332.77 282.837C332.597 282.856 332.431 282.903 332.284 282.974C332.137 283.046 332.011 283.14 331.915 283.251Z" fill="#FFFF01"/>
<path d="M346 286C346 286.525 345.884 287.045 345.657 287.531C345.431 288.016 345.1 288.457 344.682 288.828C344.264 289.2 343.768 289.494 343.222 289.696C342.676 289.897 342.091 290 341.5 290C340.909 290 340.324 289.897 339.778 289.696C339.232 289.494 338.736 289.2 338.318 288.828C337.9 288.457 337.569 288.016 337.343 287.531C337.116 287.045 337 286.525 337 286C337 284.939 337.474 283.922 338.318 283.172C339.162 282.421 340.307 282 341.5 282C342.091 282 342.676 282.103 343.222 282.304C343.768 282.506 344.264 282.8 344.682 283.172C345.1 283.543 345.431 283.984 345.657 284.469C345.884 284.955 346 285.475 346 286ZM341.531 288.974C342.361 288.974 343.157 288.658 343.745 288.097C344.332 287.535 344.662 286.773 344.662 285.978C344.662 285.184 344.332 284.422 343.745 283.86C343.157 283.298 342.361 282.982 341.531 282.982C340.7 282.982 339.904 283.298 339.317 283.86C338.73 284.422 338.4 285.184 338.4 285.978C338.4 286.773 338.73 287.535 339.317 288.097C339.904 288.658 340.7 288.974 341.531 288.974Z" fill="#FFFF01"/>
<path d="M353.872 288.455C354.304 287.882 354.867 287.507 355.563 287.329C355.615 287.315 355.67 287.315 355.722 287.33C355.773 287.345 355.82 287.373 355.855 287.412C355.89 287.451 355.912 287.499 355.919 287.55C355.927 287.601 355.918 287.653 355.895 287.699C353.907 291.711 348.194 290.042 348.005 286.03C347.81 281.915 353.889 280.339 355.964 284.242C355.994 284.298 356.005 284.361 355.998 284.424C355.99 284.486 355.963 284.545 355.92 284.593C355.878 284.641 355.821 284.676 355.757 284.694C355.694 284.712 355.626 284.711 355.563 284.693C354.651 284.421 354.153 283.611 353.448 283.269C348.709 280.953 347.168 290.716 353.672 288.596C353.753 288.571 353.824 288.522 353.872 288.455Z" fill="#FFFF01"/>
<path d="M378.144 286.321C377.991 286.32 377.841 286.359 377.712 286.433C377.584 286.507 377.482 286.613 377.42 286.738C377.357 286.863 377.337 287.001 377.362 287.136C377.387 287.27 377.455 287.396 377.558 287.497C379.516 289.39 381.496 289.387 383.499 287.486C383.578 287.408 383.685 287.36 383.801 287.35C383.917 287.341 384.033 287.37 384.127 287.433C384.22 287.496 384.285 287.588 384.308 287.692C384.33 287.795 384.31 287.902 384.25 287.992C381.832 291.605 376.08 289.972 376.001 286.033C375.909 281.206 383.316 280.385 384.965 285.364C385.003 285.478 385.01 285.6 384.986 285.717C384.963 285.835 384.908 285.946 384.827 286.042C384.747 286.138 384.642 286.215 384.522 286.269C384.401 286.322 384.269 286.349 384.134 286.348L378.144 286.321ZM377.674 285.396L383.279 285.374C383.312 285.374 383.343 285.363 383.366 285.343C383.389 285.322 383.401 285.294 383.401 285.266V285.228C383.4 284.929 383.325 284.635 383.18 284.36C383.035 284.085 382.824 283.836 382.558 283.626C382.292 283.416 381.977 283.25 381.63 283.138C381.283 283.025 380.912 282.968 380.538 282.969H380.391C379.635 282.972 378.911 283.214 378.379 283.642C377.846 284.069 377.549 284.648 377.552 285.249V285.287C377.552 285.316 377.565 285.344 377.588 285.364C377.61 285.385 377.642 285.396 377.674 285.396Z" fill="#FFFF01"/>
<path d="M388.49 283.5C388.395 283.661 388.343 283.842 388.337 284.026C388.332 284.211 388.373 284.394 388.458 284.56C388.543 284.726 388.668 284.869 388.824 284.978C388.98 285.086 389.161 285.157 389.351 285.183C394.169 285.864 391.37 291.971 387.789 289.35C387.169 288.893 386.915 288.352 387.025 287.727C387.042 287.622 387.097 287.526 387.179 287.455C387.261 287.384 387.367 287.342 387.477 287.337C387.588 287.331 387.698 287.362 387.788 287.424C387.878 287.486 387.942 287.576 387.971 287.678C388.283 288.717 388.956 289.116 389.99 288.876C390.203 288.828 390.399 288.725 390.556 288.578C390.713 288.432 390.824 288.247 390.879 288.044C390.934 287.84 390.929 287.627 390.866 287.426C390.803 287.225 390.683 287.045 390.52 286.904C389.653 286.147 388.325 286.038 387.669 285.259C387.008 284.48 387.031 283.461 387.795 282.737C388.844 281.745 390.125 281.754 391.638 282.764C391.77 282.855 391.878 282.994 391.941 283.154C392.004 283.314 392.017 283.483 391.978 283.63C391.939 283.777 391.851 283.89 391.73 283.949C391.609 284.007 391.465 284.006 391.324 283.946C390.822 283.725 390.444 283.449 390.189 283.118C390.09 282.992 389.946 282.907 389.785 282.878C389.23 282.78 388.798 282.987 388.49 283.5Z" fill="#FFFF01"/>
<path d="M187.327 288.944C185.295 290.503 183.508 290.336 181.965 288.443C179.089 284.912 183.173 280.281 187.241 282.646C187.307 282.684 187.383 282.701 187.458 282.693C187.534 282.685 187.606 282.653 187.664 282.602L188.113 282.204C188.19 282.138 188.284 282.094 188.384 282.08C188.484 282.065 188.586 282.08 188.678 282.123C188.77 282.165 188.847 282.233 188.901 282.319C188.956 282.405 188.984 282.505 188.984 282.608L189 289.522C189 289.597 188.978 289.669 188.936 289.731C188.895 289.792 188.837 289.84 188.769 289.867C188.7 289.894 188.626 289.899 188.555 289.883C188.483 289.866 188.419 289.827 188.369 289.773L187.68 288.983C187.636 288.932 187.576 288.9 187.51 288.893C187.445 288.886 187.38 288.905 187.327 288.944ZM187.936 285.86C187.936 285.086 187.634 284.343 187.097 283.795C186.56 283.248 185.831 282.94 185.071 282.94C184.311 282.94 183.582 283.248 183.045 283.795C182.507 284.343 182.206 285.086 182.206 285.86C182.206 286.244 182.28 286.624 182.424 286.978C182.568 287.332 182.779 287.654 183.045 287.926C183.311 288.197 183.627 288.412 183.974 288.559C184.322 288.705 184.695 288.781 185.071 288.781C185.447 288.781 185.82 288.705 186.167 288.559C186.515 288.412 186.831 288.197 187.097 287.926C187.363 287.654 187.574 287.332 187.718 286.978C187.862 286.624 187.936 286.244 187.936 285.86Z" fill="#FFFF01"/>
<path d="M195.145 286.642L197.949 289.673C197.973 289.699 197.99 289.73 197.996 289.764C198.003 289.797 198 289.832 197.988 289.864C197.975 289.896 197.953 289.925 197.924 289.947C197.896 289.969 197.861 289.983 197.824 289.989C196.528 290.191 194.783 287.551 194.129 286.706C194.048 286.603 194.003 286.48 194 286.353C193.997 286.226 194.037 286.102 194.113 285.996C194.732 285.13 195.424 284.281 196.187 283.449C196.504 283.106 196.877 282.96 197.306 283.009C197.343 283.014 197.377 283.028 197.407 283.049C197.436 283.07 197.458 283.097 197.472 283.129C197.486 283.161 197.49 283.195 197.485 283.228C197.479 283.262 197.464 283.294 197.441 283.32L195.129 285.986C195.048 286.079 195.005 286.195 195.008 286.314C195.011 286.434 195.06 286.55 195.145 286.642Z" fill="#FFFF01"/>
<path d="M205.105 289.433C203.344 290.305 201.97 290.154 200.982 288.98C199.653 287.403 200.032 284.456 200.108 282.404C200.119 282.161 200.254 282.036 200.51 282.029L201.029 282.012C201.116 282.011 201.201 282.042 201.264 282.098C201.327 282.155 201.364 282.233 201.367 282.316C201.426 283.734 201.076 286.934 201.7 288.065C202.592 289.692 205.542 289.069 205.636 286.934C205.698 285.403 205.733 283.871 205.74 282.338C205.741 282.291 205.752 282.245 205.772 282.202C205.792 282.159 205.821 282.121 205.857 282.089C205.893 282.058 205.936 282.033 205.982 282.018C206.028 282.003 206.077 281.997 206.125 282.001L206.621 282.04C206.712 282.045 206.797 282.084 206.86 282.147C206.922 282.21 206.958 282.294 206.959 282.382L207 289.549C207.004 290.005 206.802 290.115 206.394 289.88L205.647 289.449C205.468 289.35 205.288 289.345 205.105 289.433Z" fill="#FFFF01"/>
<path d="M259.981 289.319C259.109 289.731 258.278 290.127 257.232 289.962C253.188 289.346 254.012 284.824 254.187 282.433C254.195 282.328 254.247 282.228 254.333 282.151C254.42 282.074 254.537 282.024 254.663 282.01C255.235 281.948 255.519 282.175 255.515 282.691C255.508 283.939 255.28 287.247 256.112 288.214C257.004 289.247 259.163 289.137 260.095 288.099C260.934 287.17 260.639 283.692 260.612 282.488C260.603 282.243 260.746 282.103 261.041 282.07L261.544 282.021C261.599 282.015 261.656 282.018 261.709 282.031C261.763 282.045 261.812 282.067 261.854 282.097C261.896 282.128 261.93 282.165 261.953 282.207C261.976 282.249 261.987 282.294 261.987 282.34L262 289.714C262 289.755 261.987 289.796 261.961 289.831C261.935 289.866 261.898 289.894 261.854 289.914C261.81 289.933 261.76 289.942 261.71 289.94C261.66 289.938 261.612 289.924 261.571 289.901L260.538 289.335C260.355 289.233 260.169 289.227 259.981 289.319Z" fill="#FFFF01"/>
<path d="M266.165 283.43C268.347 282.703 269.987 282.898 271.084 284.015C272.37 285.321 271.911 287.954 271.957 289.659C271.965 289.904 271.808 290.017 271.484 289.998L270.848 289.959C270.749 289.953 270.656 289.92 270.589 289.865C270.522 289.81 270.485 289.738 270.487 289.664C270.533 287.984 271.576 282.904 267.109 284.01C264.748 284.594 265.377 288.264 265.45 289.733C265.458 289.922 265.336 290.011 265.082 289.998L264.413 289.963C264.151 289.95 264.02 289.846 264.02 289.649L264 283.283C264 283.24 264.013 283.197 264.039 283.159C264.066 283.121 264.104 283.088 264.151 283.063C264.198 283.038 264.253 283.023 264.31 283.017C264.367 283.012 264.425 283.017 264.479 283.032L265.896 283.44C265.984 283.462 266.08 283.458 266.165 283.43Z" fill="#FFFF01"/>
<path d="M284.959 289.101C280.569 291.95 276.216 287.441 278.748 283.735C279.95 281.981 281.932 281.586 284.695 282.55C284.867 282.609 285.038 282.607 285.21 282.545L286.552 282.043C286.822 281.941 286.959 282.021 286.963 282.283L287 289.598C287 289.86 286.855 289.972 286.565 289.936C286.07 289.871 285.708 289.63 285.48 289.216C285.357 288.994 285.183 288.955 284.959 289.101ZM282.34 288.925C282.761 288.937 283.182 288.872 283.577 288.734C283.972 288.595 284.334 288.386 284.643 288.118C284.951 287.849 285.2 287.527 285.375 287.17C285.55 286.813 285.647 286.427 285.662 286.035C285.691 285.244 285.381 284.475 284.8 283.897C284.219 283.32 283.414 282.981 282.562 282.956C282.141 282.944 281.72 283.008 281.325 283.147C280.93 283.285 280.568 283.495 280.259 283.763C279.951 284.031 279.702 284.353 279.527 284.711C279.352 285.068 279.255 285.454 279.24 285.845C279.211 286.637 279.521 287.406 280.102 287.983C280.683 288.561 281.488 288.899 282.34 288.925Z" fill="#FFFF01"/>
<path d="M290.982 283.523C293.109 282.927 295.059 282.609 296.28 284.138C297.298 285.408 296.917 287.978 296.983 289.629C296.996 289.903 296.818 290.025 296.451 289.996L295.965 289.957C295.694 289.934 295.56 289.82 295.565 289.615C295.591 288.257 296.3 284.475 293.904 284.026C291.781 283.632 290.672 284.217 290.575 285.78C290.497 287.053 290.462 288.32 290.47 289.58C290.47 289.792 290.328 289.909 290.044 289.932L289.466 289.981C289.16 290.007 289.007 289.905 289.007 289.673L289 283.313C289 283.101 289.142 282.997 289.427 283C289.842 283.003 290.188 283.142 290.464 283.415C290.6 283.549 290.772 283.585 290.982 283.523Z" fill="#FFFF01"/>
<path d="M304.781 285.099C305.544 285.32 306.197 285.756 306.738 286.408C306.832 286.519 306.898 286.66 306.928 286.816C307.588 290.24 303.525 291.338 303.004 287.925C302.992 287.829 303.009 287.732 303.053 287.65C303.096 287.568 303.163 287.507 303.241 287.477C303.319 287.448 303.404 287.452 303.479 287.489C303.555 287.527 303.617 287.594 303.655 287.68C304.052 288.669 304.896 289.626 305.81 288.593C305.935 288.454 306.028 288.281 306.084 288.09C306.139 287.899 306.155 287.695 306.13 287.495C306.105 287.296 306.039 287.106 305.938 286.942C305.838 286.779 305.705 286.646 305.552 286.555L303.701 285.457C303.541 285.36 303.439 285.207 303.396 285.001C302.759 281.979 305.427 281.022 306.822 283.137C306.886 283.233 306.916 283.353 306.908 283.474C306.899 283.595 306.852 283.708 306.775 283.79C306.698 283.872 306.598 283.918 306.494 283.917C306.389 283.917 306.289 283.871 306.212 283.789L305.524 283.039C305.41 282.912 305.273 282.845 305.113 282.838C304.698 282.823 304.386 283.046 304.176 283.506C304.109 283.655 304.071 283.82 304.065 283.989C304.06 284.158 304.088 284.326 304.146 284.48C304.205 284.633 304.292 284.769 304.403 284.877C304.513 284.984 304.642 285.06 304.781 285.099Z" fill="#FFFF01"/>
<path d="M358.605 282.119L358.311 282.118C358.026 282.118 357.795 282.333 357.795 282.6L357.782 289.791C357.781 290.057 358.011 290.274 358.295 290.274L358.589 290.275C358.874 290.275 359.104 290.06 359.105 289.793L359.118 282.602C359.119 282.335 358.889 282.119 358.605 282.119Z" fill="#FFFF01"/>
<path d="M368.053 289.103C366.275 290.19 364.648 290.289 363.172 289.401C358.05 286.32 362.93 279.583 368.089 282.892C368.331 283.051 368.484 282.999 368.548 282.735C368.677 282.215 369.048 282.002 369.661 282.096C369.879 282.132 369.988 282.248 369.988 282.443L370 289.439C370.001 289.534 369.971 289.626 369.911 289.704C369.852 289.783 369.767 289.843 369.668 289.877C369.569 289.911 369.46 289.917 369.356 289.895C369.253 289.873 369.159 289.823 369.087 289.753L368.476 289.152C368.351 289.025 368.21 289.009 368.053 289.103ZM368.76 285.881C368.76 285.113 368.419 284.376 367.812 283.833C367.206 283.289 366.383 282.984 365.525 282.984C365.1 282.984 364.679 283.059 364.286 283.205C363.894 283.35 363.537 283.564 363.237 283.833C362.936 284.102 362.698 284.421 362.535 284.772C362.373 285.124 362.289 285.501 362.289 285.881C362.289 286.262 362.373 286.638 362.535 286.99C362.698 287.341 362.936 287.661 363.237 287.93C363.537 288.199 363.894 288.412 364.286 288.558C364.679 288.703 365.1 288.778 365.525 288.778C366.383 288.778 367.206 288.473 367.812 287.93C368.419 287.386 368.76 286.649 368.76 285.881Z" fill="#FFFF01"/>
</svg>
