<svg width="88" height="88" viewBox="0 0 88 88" fill="none" xmlns="http://www.w3.org/2000/svg">
<g clip-path="url(#clip0_4187_2122)">
<rect width="88" height="88" fill="white"/>
<g clip-path="url(#clip1_4187_2122)">
<rect width="88" height="88" fill="black"/>
<path d="M17.2714 39.5689C17.3695 40.134 17.9059 40.515 18.4696 40.4202C19.0334 40.3253 19.4109 39.7904 19.3128 39.2253C19.2146 38.6603 18.6782 38.2793 18.1145 38.3742C17.5507 38.469 17.1733 39.0039 17.2714 39.5689Z" fill="white"/>
<path d="M57.3846 39.5812C57.4896 40.1451 58.0307 40.5198 58.5932 40.4182C59.1555 40.3165 59.5261 39.7771 59.4211 39.2132C59.3158 38.6491 58.7748 38.2744 58.2125 38.3759C57.65 38.4776 57.2793 39.0171 57.3846 39.5812Z" fill="white"/>
<path d="M11.2893 49.632H9.68018V41.002L11.2817 41.001C11.29 41.001 11.2942 41.005 11.2942 41.0131V41.6559C11.2942 41.658 11.2948 41.6601 11.296 41.662C11.2973 41.6638 11.299 41.6652 11.301 41.6661C11.3031 41.6668 11.3053 41.6671 11.3075 41.6668C11.3096 41.6663 11.3116 41.6654 11.3132 41.6638C11.9937 41.021 12.8348 40.7264 13.7871 40.866C14.3252 40.945 14.8081 41.1657 15.2137 41.5158C16.0699 42.2548 16.4115 43.2293 16.3638 44.3686C16.3313 45.1428 16.0652 45.8563 15.5433 46.4417C14.8755 47.1905 13.9766 47.5799 12.9364 47.4676C12.3097 47.4 11.7615 47.1055 11.3213 46.6854C11.3189 46.6831 11.3159 46.6817 11.3127 46.681C11.3095 46.6805 11.3062 46.6809 11.3032 46.6821C11.3002 46.6833 11.2976 46.6854 11.2959 46.6881C11.2941 46.6905 11.2931 46.6937 11.2932 46.6969L11.2893 49.632ZM14.7087 43.771C14.5777 42.9991 13.9868 42.3893 13.1738 42.3192C12.4701 42.2587 11.849 42.5422 11.4908 43.1256C11.2414 43.532 11.1872 44.0155 11.2489 44.4828C11.3283 45.0856 11.6883 45.6298 12.2608 45.8739C12.7364 46.0766 13.3721 46.0826 13.8241 45.8165C14.5577 45.385 14.8485 44.5956 14.7087 43.771Z" fill="white"/>
<path d="M32.3961 46.7122C32.0269 46.3621 31.741 45.9677 31.5592 45.4918C31.2579 44.7021 31.2613 43.7701 31.511 42.9706C31.8549 41.8699 32.8236 40.9865 34.0049 40.8528C34.9358 40.7473 35.7141 41.0483 36.3763 41.6715C36.3776 41.6727 36.3792 41.6735 36.3807 41.6738C36.3825 41.6742 36.3843 41.674 36.3857 41.6733C36.3873 41.6726 36.3887 41.6715 36.3895 41.6701C36.3904 41.6687 36.391 41.6671 36.391 41.6654V41.0166C36.391 41.0061 36.3964 41.0008 36.4073 41.0008H38.0054C38.0082 41.0008 38.011 41.0018 38.013 41.0039C38.0151 41.0059 38.0161 41.0085 38.0161 41.0113V47.3452C38.0161 47.3486 38.0147 47.3519 38.0123 47.3544C38.01 47.3567 38.0066 47.3581 38.0031 47.3581H36.404C36.4005 47.3581 36.3971 47.3567 36.3948 47.3544C36.3924 47.3519 36.391 47.3486 36.391 47.3452L36.3911 46.7099C36.3913 46.7074 36.3906 46.7049 36.3892 46.703C36.3878 46.7009 36.3858 46.6993 36.3836 46.6984C36.3813 46.6975 36.3786 46.6972 36.3762 46.6977C36.3737 46.6982 36.3714 46.6993 36.3697 46.7011C35.2593 47.816 33.5084 47.766 32.3961 46.7122ZM33.5994 45.6466C34.1309 46.1027 34.9624 46.1799 35.5632 45.8336C36.3239 45.3953 36.5844 44.5044 36.4107 43.6867C36.2128 42.7557 35.3568 42.1921 34.403 42.3393C32.8292 42.5816 32.5003 44.7042 33.5994 45.6466Z" fill="white"/>
<path d="M48.0665 41.6687C48.0665 41.6978 48.0764 41.7016 48.0963 41.6805C48.5519 41.1909 49.106 40.9126 49.7584 40.8457C50.6713 40.7523 51.4382 41.1361 51.8688 41.9459C51.8699 41.9477 51.8711 41.9493 51.8729 41.9503C51.8745 41.9514 51.8764 41.9521 51.8783 41.9523C51.8803 41.9523 51.8822 41.9519 51.8841 41.951C51.8859 41.9501 51.8873 41.9489 51.8885 41.9473C52.4377 41.1669 53.2536 40.7715 54.2149 40.8415C54.8219 40.8857 55.3137 41.1323 55.6903 41.5811C56.0881 42.0552 56.1407 42.8006 56.1418 43.4044C56.1442 44.7158 56.1446 46.0261 56.1426 47.3359C56.1426 47.338 56.1418 47.3401 56.1403 47.3415C56.1388 47.3431 56.1367 47.344 56.1345 47.344H54.5541C54.5505 47.344 54.5472 47.3426 54.5447 47.3401C54.5421 47.3377 54.5409 47.3343 54.5409 47.3308C54.5409 46.2181 54.5407 45.1035 54.5405 43.9865C54.5405 43.8179 54.5285 43.6262 54.5046 43.4118C54.4319 42.7603 54.148 42.25 53.422 42.2935C52.4382 42.3525 52.1348 43.2747 52.1365 44.1077C52.1365 44.1376 52.124 44.1626 52.124 44.1869C52.124 45.2355 52.124 46.2834 52.124 47.3308C52.124 47.3343 52.1226 47.3377 52.1202 47.3401C52.1177 47.3426 52.1143 47.344 52.1108 47.344H50.5351C50.5309 47.344 50.527 47.3423 50.524 47.3393C50.521 47.3363 50.5194 47.3322 50.5194 47.328C50.5254 46.1782 50.523 45.0284 50.5117 43.8786C50.5106 43.7636 50.4922 43.6387 50.4832 43.5208C50.4415 42.9727 50.2134 42.4125 49.6167 42.306C49.0248 42.2002 48.4972 42.5632 48.2617 43.0954C48.2147 43.2015 48.1746 43.339 48.1413 43.5081C48.0936 43.7503 48.0695 43.9689 48.069 44.1637C48.0656 45.2181 48.0651 46.2734 48.0672 47.3294C48.0672 47.3333 48.0658 47.337 48.0632 47.3398C48.0604 47.3424 48.0568 47.344 48.053 47.344H46.4765C46.4732 47.344 46.47 47.3426 46.4676 47.3403C46.4653 47.3379 46.4639 47.3347 46.4639 47.3312V41.0121C46.4639 41.0085 46.4653 41.0054 46.4676 41.0029C46.47 41.0006 46.4732 40.9992 46.4765 40.9992H48.0539C48.0572 40.9992 48.0604 41.0006 48.0628 41.0029C48.0651 41.0054 48.0665 41.0085 48.0665 41.0121V41.6687Z" fill="white"/>
<path d="M78.1441 40.9987V47.3584L76.5317 47.3593C76.5231 47.3593 76.5187 47.3551 76.5187 47.3465V46.7085C76.5187 46.7065 76.5182 46.7048 76.5173 46.7032C76.5163 46.7016 76.5147 46.7004 76.5129 46.6997C76.5112 46.6989 76.5092 46.6988 76.5075 46.6991C76.5055 46.6995 76.5039 46.7004 76.5025 46.7018C76.0506 47.1448 75.4543 47.464 74.8106 47.5107C73.9972 47.5694 73.2736 47.3531 72.6485 46.8244C71.6423 45.973 71.3116 44.7615 71.5117 43.4945C71.7308 42.1105 72.8027 40.9383 74.2689 40.8396C75.0011 40.7903 75.6491 40.983 76.2128 41.4174C76.2984 41.4834 76.4064 41.5818 76.5015 41.6654C76.5129 41.6756 76.5187 41.6729 76.5187 41.6578V41.0115C76.5187 41.008 76.5201 41.0048 76.5226 41.0024C76.5251 40.9999 76.5284 40.9985 76.5319 40.9985L78.1441 40.9987ZM76.5831 44.0253C76.5279 42.9421 75.6567 42.1696 74.5357 42.338C73.4021 42.5082 72.9093 43.66 73.1374 44.6663C73.3379 45.5509 74.1251 46.1447 75.0546 46.0338C75.4724 45.984 75.8212 45.8091 76.1013 45.509C76.4818 45.1005 76.6109 44.5699 76.5831 44.0253Z" fill="white"/>
<path d="M18.9974 41.008H17.6108C17.6048 41.008 17.6001 41.0135 17.6001 41.0203V47.3317C17.6001 47.3385 17.6048 47.344 17.6108 47.344H18.9974C19.0033 47.344 19.0081 47.3385 19.0081 47.3317V41.0203C19.0081 41.0135 19.0033 41.008 18.9974 41.008Z" fill="white"/>
<path d="M25.0042 45.9888V47.335C25.0042 47.3375 25.0034 47.3398 25.0016 47.3414C24.9998 47.3431 24.9975 47.344 24.9951 47.344H19.7209C19.7193 47.344 19.7179 47.3435 19.7165 47.3428C19.7151 47.3421 19.714 47.3408 19.7131 47.3396C19.7123 47.3382 19.7119 47.3366 19.7119 47.3352C19.7119 47.3336 19.7123 47.332 19.7131 47.3308L22.6425 42.3723C22.6432 42.3709 22.6437 42.3695 22.6435 42.3679C22.6435 42.3664 22.6432 42.365 22.6423 42.3635C22.6416 42.3621 22.6406 42.3611 22.6391 42.3604C22.6377 42.3595 22.6362 42.3591 22.6346 42.3591L20.1762 42.3593C20.1739 42.3593 20.1714 42.3584 20.1699 42.3567C20.1681 42.3551 20.167 42.3528 20.167 42.3503V41.017C20.167 41.0145 20.1681 41.0122 20.1699 41.0106C20.1714 41.0089 20.1739 41.008 20.1762 41.008H25.1589C25.1605 41.008 25.1619 41.0085 25.1633 41.0092C25.1647 41.0099 25.1658 41.0112 25.1667 41.0124C25.1676 41.0138 25.1679 41.0154 25.1679 41.0168C25.1679 41.0184 25.1676 41.02 25.1667 41.0212L22.2581 45.9666C22.2574 45.968 22.2569 45.9694 22.257 45.971C22.257 45.9726 22.2574 45.9742 22.2583 45.9754C22.259 45.9768 22.26 45.9779 22.2614 45.9786C22.2629 45.9795 22.2644 45.9798 22.266 45.9798H24.9951C24.9975 45.9798 24.9998 45.9809 25.0016 45.9825C25.0034 45.9842 25.0042 45.9865 25.0042 45.9888Z" fill="white"/>
<path d="M25.7777 42.3481V41.0193C25.7777 41.0163 25.779 41.0135 25.7811 41.0113C25.7832 41.0092 25.786 41.008 25.789 41.008H30.6131C30.6151 41.008 30.617 41.0085 30.6186 41.0096C30.6204 41.0105 30.6218 41.0119 30.6228 41.0136C30.6237 41.0154 30.6242 41.0173 30.6242 41.0193C30.6242 41.0212 30.6237 41.0231 30.6227 41.0249L27.8102 45.9631C27.8093 45.9649 27.8088 45.9668 27.8088 45.9687C27.8088 45.9707 27.8093 45.9726 27.8102 45.9744C27.8112 45.9759 27.8126 45.9774 27.8144 45.9784C27.816 45.9795 27.8179 45.9798 27.8199 45.9798H30.4507C30.4537 45.9798 30.4565 45.9811 30.4586 45.9832C30.4607 45.9853 30.4618 45.9881 30.4618 45.9911V47.3327C30.4618 47.3357 30.4607 47.3385 30.4586 47.3406C30.4565 47.3428 30.4537 47.344 30.4507 47.344H25.3553C25.3534 47.344 25.3515 47.3435 25.3499 47.3424C25.3481 47.3415 25.3467 47.3401 25.3456 47.3384C25.3448 47.3366 25.3442 47.3347 25.3442 47.3327C25.3442 47.3308 25.3448 47.3289 25.3458 47.3271L28.1784 42.3762C28.1792 42.3745 28.1798 42.3725 28.1798 42.3706C28.1798 42.3687 28.1794 42.3667 28.1784 42.365C28.1773 42.3632 28.1759 42.3618 28.1743 42.3609C28.1726 42.3599 28.1706 42.3593 28.1687 42.3593H25.789C25.786 42.3593 25.7832 42.3581 25.7811 42.356C25.779 42.3539 25.7777 42.3511 25.7777 42.3481Z" fill="white"/>
<path d="M59.123 41.008H57.7411C57.7338 41.008 57.728 41.0147 57.728 41.0228V47.3292C57.728 47.3373 57.7338 47.344 57.7411 47.344H59.123C59.1302 47.344 59.136 47.3373 59.136 47.3292V41.0228C59.136 41.0147 59.1302 41.008 59.123 41.008Z" fill="white"/>
<path d="M62.385 45.9554C62.382 45.9562 62.3794 45.958 62.3778 45.9605C62.376 45.9629 62.3753 45.9659 62.3758 45.9689C62.3764 45.9719 62.378 45.9747 62.3802 45.9766C62.3827 45.9788 62.3859 45.9798 62.389 45.9798H65.1181C65.1216 45.9798 65.125 45.9812 65.1274 45.9837C65.1299 45.986 65.1313 45.9893 65.1313 45.9927V47.3313C65.1313 47.3347 65.1299 47.3378 65.1274 47.3403C65.125 47.3426 65.1216 47.344 65.1181 47.344H59.8666C59.84 47.344 59.8332 47.3327 59.8464 47.3104L62.7653 42.3759C62.7664 42.3743 62.7669 42.3723 62.7669 42.3704C62.7669 42.3685 62.7664 42.3665 62.7653 42.365C62.7643 42.3632 62.7629 42.3618 62.7611 42.3609C62.7593 42.3599 62.7574 42.3593 62.7553 42.3593H60.3015C60.298 42.3593 60.2946 42.3579 60.2922 42.3556C60.2897 42.3532 60.2883 42.35 60.2883 42.3467V41.0207C60.2883 41.0173 60.2897 41.0142 60.2922 41.0117C60.2946 41.0094 60.298 41.008 60.3015 41.008H65.2871C65.2886 41.008 65.2901 41.0083 65.2915 41.0091C65.2927 41.0098 65.2939 41.0108 65.2946 41.0122C65.2955 41.0135 65.2959 41.0149 65.2959 41.0164C65.2959 41.0179 65.2955 41.0194 65.2948 41.0207C64.3194 42.677 63.3521 44.3203 62.3924 45.9506C62.3903 45.9545 62.3892 45.9545 62.385 45.9554Z" fill="white"/>
<path d="M67.9413 45.9429C67.9376 45.9451 67.9346 45.9485 67.933 45.9525C67.9314 45.9566 67.9311 45.9612 67.9323 45.9654C67.9333 45.9694 67.936 45.9731 67.9393 45.9758C67.9428 45.9784 67.9471 45.98 67.9515 45.9798H70.5742C70.5777 45.9798 70.5809 45.9812 70.5834 45.9837C70.5857 45.986 70.5871 45.9893 70.5871 45.9927V47.3313C70.5871 47.3347 70.5857 47.3378 70.5834 47.3403C70.5809 47.3426 70.5777 47.344 70.5742 47.344H65.4949C65.4722 47.344 65.4665 47.3341 65.4778 47.3144L68.3096 42.366C68.3102 42.3653 68.3103 42.3646 68.3103 42.3637C68.3103 42.363 68.3102 42.3621 68.3098 42.3614C68.3093 42.3609 68.3088 42.3602 68.308 42.3599C68.3073 42.3595 68.3066 42.3593 68.3059 42.3593H65.9146C65.9113 42.3593 65.9081 42.3579 65.9057 42.3556C65.9034 42.3532 65.9019 42.35 65.9019 42.3467V41.0207C65.9019 41.0173 65.9034 41.0142 65.9057 41.0117C65.9081 41.0094 65.9113 41.008 65.9146 41.008H70.7456C70.7469 41.008 70.7479 41.0083 70.749 41.0089C70.7499 41.0096 70.7508 41.0103 70.7513 41.0113C70.7518 41.0124 70.7522 41.0135 70.7522 41.0147C70.7522 41.0157 70.7518 41.017 70.7513 41.0179C69.8231 42.6492 68.8961 44.2812 67.9699 45.9138C67.9633 45.926 67.9536 45.9356 67.9413 45.9429Z" fill="white"/>
<path d="M42 46C43.1046 46 44 45.1045 44 44C44 42.8955 43.1046 42 42 42C40.8954 42 40 42.8955 40 44C40 45.1045 40.8954 46 42 46Z" fill="#FF0000"/>
</g>
</g>
<defs>
<clipPath id="clip0_4187_2122">
<rect width="88" height="88" fill="white"/>
</clipPath>
<clipPath id="clip1_4187_2122">
<rect width="88" height="88" fill="white"/>
</clipPath>
</defs>
</svg>
