<svg xmlns="http://www.w3.org/2000/svg" xmlns:xlink="http://www.w3.org/1999/xlink" version="1.1" width="1300pt" height="895.89pt" viewBox="0 0 1300 895.89">
<defs>
<clipPath id="clip_0">
<path transform="matrix(1,0,0,-1,0,895.89)" d="M0 895.89H1300V0H0Z"/>
</clipPath>
</defs>
<g id="layer_1" data-name="Layer 1">
<g clip-path="url(#clip_0)">
<path transform="matrix(1,0,0,-1,396.2805,475.9829)" d="M0 0C.259 24.643-7.852 48.588-19.998 71.482-27.513 85.647-35.634 99.543-40.477 114.98-45.219 130.094-47.026 145.47-43.779 161.08-40.831 175.252-33.815 187.435-23.767 197.777-10.056 211.89 6.322 221.466 25.972 224.048 42.448 226.213 58.357 223.803 72.063 213.432 79.403 207.878 83.818 200.147 85.717 191.195 88.249 179.263 87.121 167.661 81.109 156.859 78.565 152.29 74.999 148.699 69.664 147.298 65.017 146.078 60.904 146.932 57.733 150.586 54.548 154.255 53.948 160.057 56.72 164.18 58.781 167.244 61.489 169.985 64.309 172.402 68.987 176.411 73.596 180.321 74.66 186.863 76.135 195.932 71.874 204.176 63.096 209.835 52.487 216.675 40.986 217.538 29.029 215.127 16.133 212.527 5.863 205.774-1.187 194.606-7.485 184.629-9.528 173.477-9.43 161.813-9.24 139.344-.862 119.441 9.287 99.936 17.133 84.856 25.543 69.867 31.37 53.982 42.512 23.606 44.495-7.425 30.673-37.768 19.928-61.358 1.818-77.806-21.601-88.551-36.77-95.511-52.718-99.065-69.407-98.353-88.513-97.538-106.498-92.747-121.83-80.756-142.272-64.769-151.602-43.432-149.6-17.725-147.243 12.56-125.461 36.653-95.724 42.623-82.597 45.259-69.713 44.239-58.128 36.674-51.354 32.249-46.828 26.296-47.536 17.604-47.944 12.593-51.521 9.117-56.851 8.426-61.166 7.866-65.134 10.363-66.546 15.007-67.492 18.12-68.061 21.389-68.426 24.63-69.197 31.489-72.267 35.193-79.085 36.682-93.093 39.741-105.428 35.637-116.307 27.06-152.971-1.846-146.016-57.545-103.561-77.08-69.549-92.73-22.267-79.786-6.272-37.291-1.769-25.327 .215-14.839 0 0" fill="#c5519e"/>
<path transform="matrix(1,0,0,-1,713.5926,496.5317)" d="M0 0C.965-1.108 1.585-1.821 2.192-2.518 1.977-2.995 1.899-3.383 1.672-3.639-7.572-14.075-17.957-22.997-31.598-27.082-39.109-29.331-46.786-29.568-53.884-25.475-61.342-21.175-63.889-14.284-63.436-5.993-62.981 2.349-59.792 9.818-56.11 17.126-51.463 26.349-46.656 35.495-42.172 44.797-40.936 47.363-40.428 50.332-39.892 53.174-38.355 61.331-43.321 66.022-51.182 63.113-57.032 60.947-62.678 57.807-67.833 54.258-87.228 40.905-98.938 22.09-105.148-.323-107.319-8.154-109.077-16.106-110.792-24.053-111.492-27.299-113.351-28.691-116.383-28.574-120.269-28.423-124.142-27.943-128.026-27.688-134.014-27.295-139.933-27.303-145.511-30.145-146.363-30.579-147.72-30.024-148.844-29.926-148.618-29.047-148.672-27.897-148.123-27.33-139.605-18.537-135.892-7.156-132.125 3.928-126.97 19.091-122.928 34.636-118.559 50.059-117.874 52.476-117.694 55.127-117.78 57.653-117.945 62.502-121.267 64.512-125.516 62.073-129.925 59.541-133.943 56.335-138.181 53.496-139.326 52.73-140.358 50.743-142.097 52.826-143.743 54.797-142.331 55.825-141.003 56.997-131.934 64.992-122.708 72.911-111.105 76.89-106.818 78.36-101.781 78.607-97.227 78.113-90.328 77.365-86.015 71.097-87.198 63.598-88.291 56.674-90.39 49.906-92.127 43.089-92.599 41.237-93.364 39.458-93.581 37.327-90.48 40.61-87.448 43.963-84.264 47.164-73.273 58.214-61.009 67.557-46.728 73.947-39.621 77.126-32.218 79.69-24.183 78.425-15.612 77.075-10.151 69.51-10.81 60.838-11.735 48.678-17.727 38.426-22.667 27.76-26.78 18.882-30.237 9.827-30.619-.107-30.78-4.302-30.915-8.719-26.95-11.334-22.745-14.107-18.126-13.008-14.157-10.728-10.187-8.448-6.659-5.394-2.968-2.637-2.017-1.926-1.183-1.059 0 0" fill="#c5519e"/>
<path transform="matrix(1,0,0,-1,761.5061,526.5165)" d="M0 0C-13.272 .276-23.846 2.275-32.376 10.375-39.981 17.595-42.192 30.295-36.957 38.051-33.629 42.982-28.601 45.247-22.855 45.109-14.047 44.897-9.674 35.894-14.342 28.066-15.71 25.772-17.642 23.728-18.599 21.288-21.667 13.461-17.057 6.652-8.445 5.892 1.37 5.025 8.663 9.226 13.057 18.277 16.555 25.484 14.742 35.571 8.32 41.834 3.974 46.071-.982 49.677-5.489 53.76-8.899 56.848-12.512 59.892-15.197 63.568-23.394 74.792-20.823 89.177-11.122 97.117 3.967 109.469 21.328 113.612 40.138 107.306 51.822 103.388 57.082 90.184 51.992 79.967 48.982 73.927 42.014 71.028 35.616 73.155 29.089 75.324 27.028 80.704 30.113 87.152 31.517 90.088 33.047 93.06 33.809 96.188 34.998 101.072 32.682 104.094 27.709 105.066 19.769 106.618 10.191 101.59 7.273 94.273 5.007 88.589 6.64 83.211 9.143 78.155 12.875 70.617 19.794 66.017 25.882 60.608 31.292 55.801 36.695 50.786 41.075 45.075 45.418 39.413 44.979 32.411 42.618 25.872 37.28 11.085 25.319 4.609 10.956 1.508 6.698 .589 2.303 .306 0 0" fill="#c5519e"/>
<path transform="matrix(1,0,0,-1,542.1871,496.7948)" d="M0 0C2.416-1.302 2.786-2.646 .756-4.776-9.356-15.386-21.02-23.596-35.437-26.942-46.711-29.558-58.032-28.948-68.531-23.601-81.07-17.215-86.213-6.252-85.666 7.364-84.597 33.982-70.975 53.347-49.572 67.867-40.182 74.237-29.859 78.467-18.355 78.982-10.859 79.318-3.539 78.373 3.119 74.494 9.484 70.787 12.377 64.153 11.613 56.925 10.088 42.482 1.126 33.819-10.86 27.675-19.193 23.404-28.32 21.802-37.682 21.701-38.412 21.694-39.238 21.548-39.855 21.829-42.024 22.814-44.122 23.957-46.247 25.04-44.255 25.83-42.324 27.018-40.258 27.34-31.926 28.639-25.293 32.974-19.551 38.761-12.88 45.485-8.397 53.447-7.2 63.015-6.121 71.64-10.716 75.285-19.077 72.508-25.426 70.399-30.436 66.315-34.547 61.301-47.776 45.165-55.501 26.964-54.47 5.673-53.965-4.77-48.602-13.226-40.669-15.591-33.022-17.871-25.476-17.291-18.362-13.616-14.92-11.839-11.588-9.761-8.48-7.451-5.477-5.219-2.825-2.514 0 0" fill="#c5519e"/>
<path transform="matrix(1,0,0,-1,913.284,496.8237)" d="M0 0C2.413-1.353 2.741-2.652 .842-4.636-9.018-14.936-20.268-23.141-34.283-26.568-48.02-29.928-61.489-29.021-73.383-20.545-82.659-13.936-86.026-4.179-85.737 6.896-85.115 30.76-73.766 49.099-55.64 63.604-44.826 72.258-32.647 78.226-18.489 78.999-11.747 79.367-5.079 78.65 1.068 75.594 11.938 70.191 13.538 61.279 10.342 50.588 7.094 39.717-.801 32.777-10.551 27.871-19.27 23.484-28.69 21.72-38.441 21.749-39.049 21.751-39.665 21.759-40.264 21.853-42.622 22.221-45.547 22.076-45.925 25.119-45.992 25.655-42.537 27.063-40.604 27.339-32.378 28.513-25.85 32.714-20.089 38.349-12.813 45.465-8.151 53.932-7.123 64.199-6.448 70.94-9.675 74.129-16.358 73.175-21.884 72.386-26.462 69.489-30.251 65.659-46.484 49.256-55.217 29.641-54.515 6.33-54.148-5.877-48.265-14.023-38.49-16.171-31.527-17.701-24.643-16.927-18.278-13.544-14.962-11.781-11.732-9.782-8.72-7.545-5.709-5.309-3.019-2.642 0 0" fill="#c5519e"/>
<path transform="matrix(1,0,0,-1,943.7731,444.66844)" d="M0 0C-2.059 1.437-2.936 2.71-.395 4.925 8.807 12.945 18.187 20.646 29.713 25.205 34.255 27.002 38.928 27.277 43.659 26.396 49.755 25.261 53.755 20.407 53.781 13.907 53.794 10.519 53.369 7.119 52.983 3.743 52.612 .497 52.037-2.725 51.412-6.887 53.049-4.629 54.237-2.983 55.432-1.343 62.146 7.867 69.764 16.193 79.448 22.36 84.198 25.385 89.261 27.781 95.197 26.565 102.474 25.074 107.675 17.488 106.483 10.154 104.855 .134 97.383-5.954 88.905-4.17 83.593-3.052 81.22-.501 80.464 4.905 79.794 9.694 77.439 11.261 73.253 8.823 69.975 6.915 66.953 4.232 64.48 1.329 46.193-20.138 36.121-45.449 30.483-72.737 28.935-80.227 27.85-81.156 20.08-80.272 11.618-79.31 3.134-78.067-4.976-82.172-5.676-82.527-6.785-82.072-7.704-81.993-7.589-81.108-7.797-79.942-7.31-79.38 4.311-65.978 8.455-49.133 13.704-32.917 17.47-21.284 19.946-9.233 22.974 2.637 23.153 3.335 23.185 4.087 23.178 4.814 23.127 10.723 19.704 12.889 14.598 9.847 9.618 6.879 4.957 3.375 0 0" fill="#c5519e"/>
<path transform="matrix(1,0,0,-1,1066.147,451.8616)" d="M0 0C.66-.613 1.419-.919 2.273-.919 3.402-.919 4.281-.556 4.91 .169 5.475 .831 5.757 1.702 5.757 2.782 5.757 4.491 4.959 5.838 3.363 6.821 2.168 6.725 1.169 6.378 .362 5.781-.638 5.056-1.137 4.056-1.137 2.782-1.137 1.62-.759 .694 0 0M-.411 7.499C1.056 8.451 2.999 8.926 5.418 8.926 7.773 8.926 9.708 8.394 11.224 7.329 12.901 6.152 13.74 4.491 13.74 2.346 13.74 .476 13.094-1.008 11.805-2.105L10.305-1.089C11.401-.153 11.95 .992 11.95 2.346 11.95 3.814 11.288 4.967 9.966 5.805 8.805 6.531 7.354 6.894 5.612 6.894H4.983C5.628 6.491 6.185 5.902 6.652 5.128 7.216 4.209 7.499 3.274 7.499 2.322 7.499 .79 7.071-.452 6.216-1.403 5.282-2.435 3.991-2.951 2.347-2.951 .895-2.951-.331-2.451-1.331-1.452-2.395-.387-2.927 .992-2.927 2.685-2.927 4.814-2.089 6.419-.411 7.499" fill="#7a8385"/>
<path transform="matrix(1,0,0,-1,1067.0906,465.6494)" d="M0 0C1.145-.597 2.636-.895 4.475-.895 6.297-.895 7.789-.597 8.95 0 10.321 .725 11.006 1.798 11.006 3.217 11.006 4.637 10.321 5.708 8.95 6.434 7.789 7.031 6.297 7.329 4.475 7.329 2.636 7.329 1.145 7.031 0 6.434-1.387 5.708-2.08 4.637-2.08 3.217-2.08 1.798-1.387 .725 0 0M-1.161 7.958C.37 8.91 2.25 9.385 4.475 9.385 6.716 9.385 8.595 8.91 10.111 7.958 11.901 6.846 12.796 5.265 12.796 3.217 12.796 1.185 11.901-.395 10.111-1.524 8.579-2.475 6.701-2.951 4.475-2.951 2.25-2.951 .37-2.475-1.161-1.524-2.968-.395-3.871 1.185-3.871 3.217-3.871 5.265-2.968 6.846-1.161 7.958" fill="#7a8385"/>
<path transform="matrix(1,0,0,-1,1066.147,479.02684)" d="M0 0C.66-.613 1.419-.919 2.273-.919 3.402-.919 4.281-.556 4.91 .169 5.475 .831 5.757 1.702 5.757 2.782 5.757 4.491 4.959 5.838 3.363 6.821 2.168 6.725 1.169 6.378 .362 5.781-.638 5.056-1.137 4.056-1.137 2.782-1.137 1.62-.759 .694 0 0M-.411 7.499C1.056 8.451 2.999 8.926 5.418 8.926 7.773 8.926 9.708 8.394 11.224 7.329 12.901 6.153 13.74 4.491 13.74 2.346 13.74 .476 13.094-1.008 11.805-2.105L10.305-1.089C11.401-.153 11.95 .992 11.95 2.346 11.95 3.814 11.288 4.967 9.966 5.805 8.805 6.531 7.354 6.894 5.612 6.894H4.983C5.628 6.491 6.185 5.902 6.652 5.128 7.216 4.209 7.499 3.274 7.499 2.322 7.499 .79 7.071-.452 6.216-1.403 5.282-2.435 3.991-2.951 2.347-2.951 .895-2.951-.331-2.451-1.331-1.452-2.395-.387-2.927 .992-2.927 2.685-2.927 4.814-2.089 6.419-.411 7.499" fill="#7a8385"/>
<path transform="matrix(1,0,0,-1,1071.552,438.47984)" d="M0 0C4.622-.001 8.359 3.733 8.361 8.355 8.364 12.977 4.632 16.716 .01 16.72-4.618 16.724-8.359 12.986-8.358 8.358-8.357 3.736-4.622 .001 0 0M.001 18.735C5.75 18.735 10.395 14.084 10.373 8.31 10.351 2.595 5.721-2.057-.085-2.012-5.816-1.968-10.42 2.684-10.37 8.453-10.32 14.16-5.708 18.719 .001 18.735" fill="#7a8385"/>
<path transform="matrix(1,0,0,-1,1069.7103,429.3517)" d="M0 0C.025-.005 .043-.012 .061-.011 .554 .006 1.049 .007 1.541 .046 1.974 .08 2.324 .294 2.563 .663 2.779 .997 2.795 1.375 2.77 1.758 2.732 2.341 2.424 2.723 1.851 2.829 1.528 2.889 1.194 2.894 .864 2.908 .578 2.921 .291 2.911 0 2.911ZM3.483-1.326C4.638-2.858 5.784-4.378 6.941-5.912 6.9-5.918 6.871-5.926 6.842-5.926 5.862-5.926 4.882-5.924 3.902-5.929 3.793-5.93 3.752-5.871 3.702-5.801 2.799-4.554 1.895-3.308 .995-2.059 .937-1.979 .88-1.948 .784-1.95 .526-1.956 .267-1.952-.005-1.952V-5.917H-2.584V4.89C-2.563 4.895-2.545 4.903-2.545 4.903-1.043 4.9 .441 4.901 1.925 4.889 2.452 4.885 2.982 4.852 3.485 4.677 4.459 4.338 5.161 3.715 5.364 2.67 5.552 1.702 5.46 .757 4.902-.093 4.575-.592 4.128-.967 3.608-1.256 3.57-1.277 3.533-1.298 3.483-1.326" fill="#7a8385"/>
<path transform="matrix(1,0,0,-1,0,895.89)" d="M499.505 346.981H502.329V321.86799H499.505Z" fill="#7a8385"/>
<path transform="matrix(1,0,0,-1,0,895.89)" d="M554.664 340.053H557.488V321.867H554.664ZM554.74 343.216C554.362 343.567 554.175 344.007 554.175 344.534 554.175 345.06 554.362 345.512 554.74 345.889 555.116 346.266 555.568 346.454 556.095 346.454 556.623 346.454 557.073 346.266 557.451 345.889 557.801 345.512 557.977 345.06 557.977 344.534 557.977 344.007 557.801 343.567 557.451 343.216 557.073 342.839 556.623 342.651 556.095 342.651 555.568 342.651 555.116 342.839 554.74 343.216" fill="#7a8385"/>
<path transform="matrix(1,0,0,-1,622.1328,574.0224)" d="M0 0V11.898C0 14.709-1.368 16.114-4.103 16.114-6.287 16.114-8.083 15.173-9.487 13.29V0H-12.311V18.186H-9.487V15.55C-7.781 17.608-5.609 18.637-2.974 18.637 .867 18.637 2.787 16.679 2.787 12.764V0Z" fill="#7a8385"/>
<path transform="matrix(1,0,0,-1,690.4698,568.7887)" d="M0 0V7.982C-1.28 9.914-3.087 10.881-5.422 10.881-7.23 10.881-8.673 10.228-9.752 8.923-10.782 7.668-11.296 6.011-11.296 3.953-11.296 1.92-10.782 .276-9.752-.979-8.673-2.285-7.23-2.937-5.422-2.937-3.063-2.937-1.256-1.958 0 0M-13.215-9.865-11.785-7.832C-10.404-9.463-8.435-10.279-5.874-10.279-4.217-10.279-2.863-9.877-1.808-9.074-.602-8.145 0-6.777 0-4.97V-2.222C-1.582-4.38-3.628-5.46-6.137-5.46-8.547-5.46-10.493-4.619-11.974-2.937-13.48-1.23-14.232 1.066-14.232 3.953-14.232 6.839-13.48 9.149-11.974 10.881-10.493 12.562-8.547 13.403-6.137 13.403-3.628 13.403-1.582 12.336 0 10.203V12.952H2.824V-4.97C2.824-7.631 1.933-9.626 .15-10.957-1.356-12.061-3.365-12.613-5.874-12.613-8.911-12.613-11.359-11.697-13.215-9.865" fill="#7a8385"/>
<path transform="matrix(1,0,0,-1,759.4833,563.7439)" d="M0 0C-.024 1.531-.514 2.874-1.468 4.029-2.572 5.359-4.078 6.025-5.985 6.025-7.794 6.025-9.248 5.359-10.353 4.029-11.333 2.9-11.859 1.556-11.935 0ZM-12.274-8.095C-14.031-6.313-14.909-4.003-14.909-1.167-14.909 1.493-14.068 3.74-12.387 5.573-10.655 7.43-8.509 8.359-5.948 8.359-3.263 8.359-1.116 7.417 .491 5.535 2.021 3.728 2.787 1.418 2.787-1.393V-2.108H-11.896C-11.772-3.891-11.144-5.372-10.014-6.551-8.809-7.781-7.266-8.396-5.383-8.396-3.124-8.396-1.242-7.618 .265-6.061L1.619-7.907C-.313-9.789-2.724-10.731-5.609-10.731-8.346-10.731-10.567-9.852-12.274-8.095" fill="#7a8385"/>
<path transform="matrix(1,0,0,-1,813.512,574.0224)" d="M0 0V18.186H2.824V15.286C4.556 17.495 6.576 18.6 8.885 18.6V15.7C8.433 15.75 8.07 15.776 7.794 15.776 6.915 15.776 5.974 15.475 4.97 14.872 3.966 14.295 3.25 13.63 2.824 12.876V0Z" fill="#7a8385"/>
<path transform="matrix(1,0,0,-1,0,895.89)" d="M872.623 340.053H875.44699V321.867H872.623ZM872.699 343.216C872.322 343.567 872.134 344.007 872.134 344.534 872.134 345.06 872.322 345.512 872.699 345.889 873.075 346.266 873.527 346.454 874.054 346.454 874.582 346.454 875.032 346.266 875.41 345.889 875.761 345.512 875.937 345.06 875.937 344.534 875.937 344.007 875.761 343.567 875.41 343.216 875.032 342.839 874.582 342.651 874.054 342.651 873.527 342.651 873.075 342.839 872.699 343.216" fill="#7a8385"/>
<path transform="matrix(1,0,0,-1,941.637,563.7439)" d="M0 0C-.024 1.531-.514 2.874-1.468 4.029-2.572 5.359-4.078 6.025-5.985 6.025-7.794 6.025-9.248 5.359-10.353 4.029-11.333 2.9-11.859 1.556-11.935 0ZM-12.274-8.095C-14.031-6.313-14.909-4.003-14.909-1.167-14.909 1.493-14.068 3.74-12.387 5.573-10.655 7.43-8.509 8.359-5.948 8.359-3.263 8.359-1.116 7.417 .491 5.535 2.021 3.728 2.787 1.418 2.787-1.393V-2.108H-11.896C-11.772-3.891-11.144-5.372-10.014-6.551-8.809-7.781-7.266-8.396-5.383-8.396-3.124-8.396-1.242-7.618 .265-6.061L1.619-7.907C-.313-9.789-2.724-10.731-5.609-10.731-8.346-10.731-10.567-9.852-12.274-8.095" fill="#7a8385"/>
</g>
</g>
</svg>
