<svg width="172" height="37" viewBox="0 0 172 37" fill="none" xmlns="http://www.w3.org/2000/svg">
<g clip-path="url(#clip0_4512_2045)">
<mask id="mask0_4512_2045" style="mask-type:luminance" maskUnits="userSpaceOnUse" x="14" y="8" width="144" height="24">
<path d="M158 8H14V32H158V8Z" fill="white"/>
</mask>
<g mask="url(#mask0_4512_2045)">
<path fill-rule="evenodd" clip-rule="evenodd" d="M37.0376 9.44238H31.3224L14 26.3462H19.7152L37.0376 9.44238Z" fill="#231F20"/>
<path fill-rule="evenodd" clip-rule="evenodd" d="M29.7905 9.44238L21.8953 17.1731L14 9.44238H29.7905Z" fill="#ED1C24"/>
<path fill-rule="evenodd" clip-rule="evenodd" d="M21.248 26.346L29.1433 18.6152L37.0386 26.346H21.248Z" fill="#ED1C24"/>
<path d="M112.691 18.4999C112.2 18.1295 111.64 17.8553 111.041 17.6922L109.392 17.346V17.2307C109.938 17.1098 110.472 16.9359 110.983 16.7115C111.438 16.5107 111.856 16.2378 112.22 15.9038C112.616 15.5673 112.936 15.155 113.162 14.6922C113.403 14.207 113.524 13.6736 113.516 13.1345C113.528 12.5256 113.365 11.9256 113.045 11.4038C112.761 10.9251 112.355 10.5274 111.866 10.2499C111.354 9.95479 110.797 9.74063 110.216 9.6153C109.635 9.49503 109.043 9.43699 108.449 9.44222H100.495V10.3076C100.755 10.2969 101.016 10.3361 101.261 10.423L102.086 10.6538C102.304 10.7811 102.486 10.9596 102.616 11.173C102.713 11.3907 102.753 11.6286 102.734 11.8653V24.0383C102.733 24.2927 102.693 24.5456 102.616 24.7883C102.482 24.9839 102.3 25.1427 102.086 25.2499L101.261 25.423H100.377V26.2883H108.567C109.286 26.3137 110.003 26.2161 110.688 25.9999C111.355 25.8263 111.991 25.5539 112.574 25.1922C113.112 24.798 113.572 24.3089 113.928 23.7499C114.296 23.118 114.479 22.3997 114.459 21.673C114.472 20.9835 114.289 20.3039 113.928 19.7115C113.635 19.2059 113.208 18.7874 112.691 18.4999ZM105.327 10.423H107.329C107.776 10.3892 108.225 10.4433 108.65 10.582C109.075 10.7207 109.467 10.9413 109.804 11.2307C110.328 11.8436 110.6 12.6246 110.57 13.423C110.581 13.9095 110.521 14.395 110.393 14.8653C110.259 15.2717 110.039 15.6454 109.745 15.9615C109.448 16.3064 109.062 16.5657 108.625 16.7115C108.078 16.9053 107.499 17.0029 106.917 16.9999H105.327V10.423ZM110.452 24.3845C110.095 24.7437 109.663 25.0225 109.184 25.2018C108.706 25.3811 108.194 25.4566 107.683 25.423C107.085 25.4618 106.488 25.3209 105.975 25.0192C105.774 24.9128 105.607 24.7541 105.492 24.5606C105.378 24.3671 105.32 24.1464 105.327 23.923V17.923H107.448C107.98 17.889 108.514 17.9582 109.02 18.1265C109.526 18.2948 109.992 18.5589 110.393 18.9038C110.738 19.2208 111.012 19.6056 111.194 20.0332C111.377 20.4606 111.465 20.9212 111.454 21.3845C111.506 22.4709 111.15 23.5383 110.452 24.3845Z" fill="#231F20"/>
<path d="M60.6063 25.25L59.7225 24.6154C59.3582 24.2987 59.023 23.9512 58.7209 23.5769L56.1873 20.2884L53.7716 17.1731L55.9516 14.5769L57.9549 12.2692L58.8977 11.2308C59.201 10.9478 59.5626 10.7314 59.9582 10.5962L60.842 10.3654H61.7257V9.5H54.5965V10.3654C55.1762 10.3252 55.7582 10.4038 56.3051 10.5962C56.6586 10.7115 56.7765 10.8846 56.7765 11.1154C56.7765 11.3461 56.423 12.0385 55.657 13.0192C54.8911 14 54.0662 15.0962 53.0646 16.3077L51.5916 14.4615L50.5899 12.9615C50.2749 12.5853 49.9986 12.1795 49.765 11.75C49.5926 11.5284 49.4719 11.2723 49.4115 11C49.4115 10.7692 49.7061 10.5961 50.2953 10.5385L51.8862 10.3654V9.5H42.9893V10.3654H43.932L44.8158 10.5962L45.6996 11.1154L46.6423 12.2115L49.2348 15.5L51.2381 18.0961L48.8224 20.9231L46.5834 23.5769L45.7585 24.5L44.6391 25.1923L43.6963 25.4231L42.8125 25.5384V26.3462H50.0008V25.5384C49.3787 25.557 48.7588 25.4591 48.1742 25.25C48.0501 25.2119 47.9423 25.1346 47.8677 25.0303C47.793 24.9259 47.7559 24.8003 47.7617 24.6731C47.7617 24.4423 48.2921 23.6923 49.2937 22.4231C50.2953 21.1538 51.1792 20 52.0041 19.0769L53.477 21.0384L54.7732 22.8269C55.0592 23.2316 55.3151 23.6558 55.5392 24.0962C55.7117 24.3179 55.8323 24.5738 55.8927 24.8461C55.8927 25.0769 55.657 25.1923 55.1857 25.3077L53.3592 25.5384V26.3462H62.3739V25.5384H61.4312C61.1399 25.495 60.8598 25.3971 60.6063 25.25Z" fill="#231F20"/>
<path d="M126.479 24.0385V18.1539C126.479 17.3462 126.42 14.9232 123.532 14.404C122.943 14.2886 120.41 13.9424 118.407 15.0963C117.975 15.3044 117.594 15.5993 117.287 15.9616C117.007 16.2637 116.841 16.6505 116.816 17.0578C116.816 17.2321 116.851 17.4046 116.919 17.5656C116.988 17.7265 117.087 17.8729 117.212 17.9961C117.339 18.1193 117.488 18.217 117.652 18.2837C117.817 18.3504 117.993 18.3847 118.171 18.3847C120.057 18.3847 119.762 16.8271 119.703 16.4809C119.595 16.2408 119.516 15.9891 119.468 15.7309C120.018 15.3043 120.712 15.0981 121.412 15.154C123.474 15.154 123.945 16.654 123.945 17.6924V18.8462C123.116 19.176 122.27 19.4647 121.412 19.7117C119.997 20.1732 117.17 20.6347 116.404 22.4809C116.263 22.8907 116.184 23.3181 116.168 23.7501C116.177 24.1457 116.271 24.5349 116.444 24.8927C116.616 25.2505 116.863 25.5688 117.17 25.8271C117.856 26.4006 118.743 26.6902 119.644 26.6347C120.437 26.6642 121.227 26.5247 121.959 26.2259C122.692 25.927 123.349 25.476 123.886 24.904H124.004C124.035 25.164 124.118 25.4154 124.25 25.6433C124.381 25.8711 124.558 26.0709 124.77 26.2309C125.284 26.5326 125.881 26.6735 126.479 26.6347L127.54 26.5194L128.659 26.1732V25.5962C127.127 25.5962 126.479 24.7309 126.479 24.0385ZM123.945 23.9232C123.553 24.314 123.118 24.6622 122.649 24.9617C122.119 25.2241 121.534 25.3624 120.94 25.3655C120.411 25.3739 119.893 25.2117 119.468 24.904C119.269 24.7068 119.115 24.4718 119.013 24.2138C118.912 23.9558 118.866 23.6802 118.878 23.404C118.889 22.9509 119.032 22.5103 119.291 22.1347C119.553 21.7243 119.917 21.3866 120.351 21.154C120.858 20.8584 121.39 20.6073 121.942 20.4039L123.945 19.8271V23.9232Z" fill="#231F20"/>
<path d="M73.6271 24.0385V18.1539C73.6271 17.3462 73.6271 14.9232 70.74 14.404C70.1508 14.2886 67.6172 13.9424 65.614 15.0963C65.1828 15.3044 64.8013 15.5993 64.4945 15.9616C64.2143 16.2637 64.048 16.6505 64.0232 17.0578C64.0228 17.4 64.1575 17.729 64.399 17.9762C64.6405 18.2235 64.9703 18.3698 65.3194 18.3847C67.2637 18.3847 66.9691 16.8271 66.9102 16.4809C66.8018 16.2408 66.7228 15.9891 66.6746 15.7309C67.2066 15.3132 67.8798 15.1072 68.56 15.154C70.6811 15.154 71.0935 16.654 71.0935 17.6924V18.8462C70.2894 19.1887 69.4626 19.4779 68.6189 19.7117C67.2048 20.1732 64.3767 20.6347 63.6107 22.4809C63.4703 22.8907 63.3909 23.3181 63.375 23.7501C63.3842 24.1457 63.4782 24.5349 63.6507 24.8927C63.8233 25.2505 64.0706 25.5688 64.3767 25.8271C65.0419 26.3971 65.9099 26.6873 66.7924 26.6347C67.5937 26.6611 68.3914 26.5206 69.133 26.2222C69.8746 25.9237 70.5428 25.4744 71.0935 24.904H71.1524C71.2578 25.4281 71.5502 25.8985 71.9773 26.2309C72.4734 26.5246 73.0482 26.6653 73.6271 26.6347L74.7466 26.5194C75.1135 26.4478 75.4698 26.3315 75.8071 26.1732V25.5962C74.3341 25.5962 73.6271 24.7309 73.6271 24.0385ZM71.0935 23.9232C70.7356 24.3271 70.3186 24.6771 69.8562 24.9617C69.3263 25.2241 68.7414 25.3624 68.1475 25.3655C67.6181 25.3739 67.1006 25.2117 66.6746 24.904C66.4767 24.7068 66.3223 24.4718 66.221 24.2138C66.1196 23.9558 66.0735 23.6802 66.0853 23.404C66.0674 22.9467 66.2133 22.4977 66.4978 22.1347C66.7597 21.7243 67.1249 21.3866 67.5584 21.154C68.0649 20.8584 68.5972 20.6073 69.1492 20.4039L71.0935 19.8271V23.9232Z" fill="#231F20"/>
<path d="M81.1677 24.3269V8.17308L80.9909 8L75.9238 8.17308V8.92307C78.5752 8.92307 78.6341 10.0192 78.6341 10.7115V24.3269C78.6341 25.3077 77.5147 25.5961 76.6309 25.5961V26.3462H83.1709V25.5961C82.2871 25.5961 81.1677 25.3077 81.1677 24.3269Z" fill="#231F20"/>
<path d="M155.703 24.3846L151.637 19.0769L153.995 16.9423C153.995 16.9423 155.703 15.3846 156.94 15.3846V14.5769H151.697V15.3846C152.698 15.3846 153.051 15.6731 153.17 15.9038C153.287 16.1346 152.522 17.1154 152.522 17.1154L148.986 20.5193V8.17308L148.81 8L143.801 8.17308V8.92307C146.394 8.92307 146.452 10.0192 146.452 10.7115V24.3269C146.452 25.3077 145.333 25.5961 144.45 25.5961V26.3462H150.989V25.5961C150.106 25.5961 148.986 25.3077 148.986 24.3269V21.3846L149.987 20.4616L154.289 26.3462H158.001V25.5961C157.54 25.6239 157.082 25.5251 156.675 25.3111C156.269 25.097 155.932 24.7762 155.703 24.3846Z" fill="#231F20"/>
<path d="M97.2544 30.8462C97.1327 30.8231 97.0174 30.7752 96.9159 30.7056C96.8144 30.6361 96.7289 30.5464 96.6651 30.4424C96.5454 30.21 96.4847 29.9527 96.4884 29.6924V18.5001C96.4884 17.8078 96.5472 17.0578 96.6062 16.2501C96.6651 15.4424 96.6651 14.6347 96.724 14.0578L95.9581 13.9424L94.7797 15.5001L94.1905 15.1539C93.5517 14.8495 92.8796 14.6173 92.1872 14.4616C91.6856 14.3439 91.1712 14.2858 90.6553 14.2885C89.8286 14.3017 89.0107 14.458 88.2396 14.7501C87.4828 15.028 86.784 15.4385 86.1774 15.9616C85.5891 16.5266 85.1101 17.1912 84.7633 17.9231C84.4019 18.6813 84.2206 19.5097 84.233 20.3463C84.236 21.2318 84.3954 22.1101 84.7044 22.9424C84.9549 23.6771 85.3632 24.3508 85.9018 24.9179C86.4405 25.4852 87.097 25.9329 87.8272 26.2308C88.5543 26.5324 89.3353 26.6894 90.125 26.6924C90.5448 26.7097 90.9643 26.651 91.3624 26.5193C91.7339 26.4355 92.0912 26.2996 92.4229 26.1154C92.7277 26.0195 93.0087 25.8623 93.2478 25.654L93.8959 25.1924H93.9548V29.9231C93.9514 30.1642 93.8909 30.4012 93.7781 30.6154C93.7211 30.7248 93.6376 30.8189 93.5349 30.8893C93.4321 30.9598 93.3133 31.0043 93.1888 31.0193L92.4818 31.1347H91.6569V31.9424H98.904V31.1924L98.0792 31.077C97.7919 31.0515 97.512 30.9731 97.2544 30.8462ZM93.9548 24.1539C93.6142 24.5049 93.2159 24.7974 92.7764 25.0193C92.2624 25.2612 91.6968 25.3798 91.1266 25.3654C90.4796 25.3906 89.8351 25.2722 89.2412 25.0193C88.7381 24.766 88.3116 24.388 88.004 23.9231C87.6681 23.4665 87.4096 22.9601 87.2379 22.4231C87.1151 21.8152 87.0559 21.1966 87.0612 20.577C86.9752 19.1917 87.3472 17.8162 88.1217 16.6539C88.4021 16.2127 88.7927 15.8488 89.2566 15.5964C89.7205 15.344 90.2424 15.2116 90.7731 15.2116C91.2117 15.2042 91.6488 15.2626 92.0694 15.3847L93.0121 15.8462C93.2385 16.029 93.4369 16.2428 93.6013 16.4808C93.7649 16.6864 93.8851 16.9217 93.9548 17.1731V24.1539Z" fill="#231F20"/>
<path d="M141.678 24.327V18.154C141.678 16.9424 141.501 16.077 140.853 15.327C140.205 14.577 139.557 14.2886 138.025 14.2886C136.493 14.2886 134.195 16.077 134.019 16.3078H133.96V14.6347L133.783 14.4616L129.188 14.7501V15.3847C131.073 15.3847 131.426 16.2501 131.426 17.0001V24.327C131.426 25.3078 130.307 25.5962 129.423 25.5962V26.3463H135.787V25.5962C134.902 25.5962 133.96 25.3078 133.96 24.327V17.4617C134.267 16.9283 134.712 16.4827 135.249 16.169C135.787 15.8553 136.398 15.6844 137.024 15.6732C138.202 15.6732 139.145 16.5386 139.145 18.327V24.327C139.145 25.3078 138.202 25.5962 137.318 25.5962V26.3463H143.682V25.5962C142.797 25.5962 141.678 25.3078 141.678 24.327Z" fill="#231F20"/>
</g>
</g>
<defs>
<clipPath id="clip0_4512_2045">
<rect width="144" height="24" fill="white" transform="translate(14 8)"/>
</clipPath>
</defs>
</svg>
