<svg width="500" height="500" viewBox="0 0 500 500" fill="none" xmlns="http://www.w3.org/2000/svg">
<rect width="500" height="500" fill="#00984B"/>
<path d="M216.034 281.626C216.033 281.644 216.027 281.66 216.017 281.673C216.008 281.686 215.995 281.696 215.98 281.701C215.966 281.707 215.95 281.707 215.935 281.703C215.919 281.699 215.905 281.69 215.895 281.677L205.051 268.597C204.956 268.484 204.956 268.371 205.051 268.258C210.312 262.129 215.656 255.932 221.084 249.668C222.851 247.625 224.286 245.867 225.389 244.391C233.997 232.858 240.171 218.416 242.637 203.347C245.31 187.03 242.472 169.413 234.673 155.429C227.724 142.965 218.223 133.831 206.172 128.026C206.138 128.01 206.1 128.007 206.065 128.018C206.03 128.029 205.999 128.053 205.978 128.087C176.506 174.877 139.948 216.16 99.0545 250.079C99.0379 250.093 99.0243 250.111 99.0149 250.131C99.0054 250.152 99.0003 250.175 99 250.199C98.9997 250.222 99.0042 250.245 99.0131 250.266C99.022 250.287 99.0351 250.306 99.0513 250.32C121.957 270.655 143.586 292.291 163.755 315.892C178.87 333.579 192.834 352.257 205.645 371.926C205.691 371.998 205.752 372.018 205.826 371.984C226.925 362.545 242.863 342.051 243.891 315.683C244.156 308.861 243.614 302.18 242.266 295.64C242.26 295.611 242.247 295.585 242.229 295.564C242.212 295.542 242.189 295.527 242.164 295.519C242.139 295.511 242.113 295.51 242.088 295.518C242.063 295.525 242.04 295.54 242.022 295.56L224.005 315.863C223.988 315.882 223.968 315.896 223.946 315.906C223.924 315.916 223.9 315.92 223.876 315.92C223.853 315.919 223.829 315.913 223.808 315.902C223.786 315.891 223.767 315.875 223.751 315.856L213.822 303.857C213.792 303.823 213.776 303.776 213.777 303.728C213.777 303.679 213.795 303.633 213.825 303.598C218.916 297.795 223.886 292.196 228.734 286.802C243.308 270.581 257.282 254.983 270.656 240.009C273.767 236.527 276.821 233.485 280.788 232.097C284.635 230.754 287.894 231.504 290.565 234.346C291.562 235.406 292.349 236.83 293.006 238.206C293.043 238.281 293.057 238.368 293.047 238.454C293.036 238.539 293.002 238.619 292.949 238.682C288.158 244.314 283.399 249.866 278.671 255.337C276.866 257.425 275.441 259.197 274.395 260.654C265.374 273.218 258.94 288.907 257.201 305.036C256.426 312.215 256.707 319.491 258.042 326.863C259.886 337.059 264.457 346.632 271.037 354.186C277.76 361.902 285.363 367.831 293.847 371.973C293.934 372.016 294.005 371.994 294.06 371.905C323.688 325.475 360.747 285.169 400.926 249.96C400.949 249.94 400.967 249.914 400.98 249.885C400.993 249.856 401 249.824 401 249.791C401 249.759 400.994 249.726 400.982 249.697C400.97 249.668 400.952 249.642 400.93 249.621C361.499 213.644 325.596 173.082 294.412 128.076C294.388 128.042 294.355 128.018 294.318 128.007C294.281 127.996 294.241 127.998 294.206 128.015C286.748 131.434 280.224 136.236 274.634 142.421C263.79 154.412 257.544 169.863 256.559 187.099C256.151 194.233 256.675 201.411 258.131 208.634C258.162 208.8 258.232 208.823 258.34 208.702L277.236 187.43C277.459 187.18 277.558 187.233 277.535 187.589C277.49 188.288 277.82 188.638 278.224 189.124C282.331 194.074 286.438 199.036 290.546 204.01C290.641 204.127 290.652 204.254 290.578 204.388L289.384 206.558C289.35 206.619 289.3 206.666 289.241 206.691C289.182 206.717 289.117 206.719 289.057 206.698L279.328 203.383C279.311 203.376 279.292 203.375 279.274 203.378C279.256 203.382 279.239 203.39 279.224 203.402C279.209 203.414 279.197 203.43 279.189 203.449C279.18 203.467 279.176 203.488 279.176 203.509C278.901 213.689 275.337 221.819 268.485 227.898C264.682 231.272 260.308 234.044 256.014 236.278C251.47 238.64 247.113 240.941 242.942 243.18C236.581 246.597 230.213 251.11 225.573 256.865C219.938 263.861 217.148 272.263 216.034 281.626Z" stroke="#7FCBA5" stroke-width="2"/>
<path d="M216.034 281.626C217.148 272.263 219.938 263.861 225.573 256.865C230.213 251.11 236.581 246.597 242.942 243.18C247.113 240.941 251.47 238.64 256.014 236.278C260.308 234.044 264.682 231.272 268.485 227.898C275.337 221.819 278.901 213.689 279.176 203.509C279.176 203.488 279.18 203.467 279.189 203.449C279.197 203.43 279.209 203.414 279.224 203.402C279.239 203.39 279.256 203.382 279.274 203.378C279.292 203.375 279.311 203.376 279.328 203.383L289.057 206.698C289.117 206.719 289.182 206.717 289.241 206.691C289.3 206.666 289.35 206.619 289.384 206.558L290.578 204.388C290.652 204.254 290.641 204.127 290.546 204.01C286.438 199.036 282.331 194.074 278.224 189.124C277.82 188.638 277.49 188.288 277.535 187.589C277.558 187.233 277.459 187.18 277.236 187.43L258.34 208.702C258.232 208.823 258.162 208.8 258.131 208.634C256.675 201.411 256.151 194.233 256.559 187.099C257.544 169.863 263.79 154.412 274.634 142.421C280.224 136.236 286.748 131.434 294.206 128.015C294.241 127.998 294.281 127.996 294.318 128.007C294.355 128.018 294.388 128.042 294.412 128.076C325.596 173.082 361.499 213.644 400.93 249.621C400.952 249.642 400.97 249.668 400.982 249.697C400.994 249.726 401 249.759 401 249.791C401 249.824 400.993 249.856 400.98 249.885C400.967 249.914 400.949 249.94 400.926 249.96C360.747 285.169 323.688 325.475 294.06 371.905C294.005 371.994 293.934 372.016 293.847 371.973C285.363 367.831 277.76 361.902 271.037 354.186C264.457 346.632 259.886 337.059 258.042 326.863C256.707 319.491 256.426 312.215 257.201 305.036C258.94 288.907 265.374 273.218 274.395 260.654C275.441 259.197 276.866 257.425 278.671 255.337C283.399 249.866 288.158 244.314 292.949 238.682C293.002 238.619 293.036 238.539 293.047 238.454C293.057 238.368 293.043 238.281 293.006 238.206C292.349 236.83 291.562 235.406 290.565 234.346C287.894 231.504 284.635 230.754 280.788 232.097C276.821 233.485 273.767 236.527 270.656 240.009C257.282 254.983 243.308 270.581 228.734 286.802C223.886 292.196 218.916 297.795 213.825 303.598C213.795 303.633 213.777 303.679 213.777 303.728C213.776 303.776 213.792 303.823 213.822 303.857L223.751 315.856C223.767 315.875 223.786 315.891 223.808 315.902C223.829 315.913 223.853 315.919 223.876 315.92C223.9 315.92 223.924 315.916 223.946 315.906C223.968 315.896 223.988 315.882 224.005 315.863L242.022 295.56C242.04 295.54 242.063 295.525 242.088 295.518C242.113 295.51 242.139 295.511 242.164 295.519C242.189 295.527 242.212 295.542 242.229 295.564C242.247 295.585 242.26 295.611 242.266 295.64C243.614 302.18 244.156 308.861 243.891 315.683C242.863 342.051 226.925 362.545 205.826 371.984C205.752 372.018 205.691 371.998 205.645 371.926C192.834 352.257 178.87 333.579 163.755 315.892C143.586 292.291 121.957 270.655 99.0513 250.32C99.0351 250.306 99.022 250.287 99.0131 250.266C99.0042 250.245 98.9997 250.222 99 250.199C99.0003 250.175 99.0054 250.152 99.0149 250.131C99.0243 250.111 99.0379 250.093 99.0545 250.079C139.948 216.16 176.506 174.877 205.978 128.087C205.999 128.053 206.03 128.029 206.065 128.018C206.1 128.007 206.138 128.01 206.172 128.026C218.223 133.831 227.724 142.965 234.673 155.429C242.472 169.413 245.31 187.03 242.637 203.347C240.171 218.416 233.997 232.858 225.389 244.391C224.286 245.867 222.851 247.625 221.084 249.668C215.656 255.932 210.312 262.129 205.051 268.258C204.956 268.371 204.956 268.484 205.051 268.597L215.895 281.677C215.905 281.69 215.919 281.699 215.935 281.703C215.95 281.707 215.966 281.707 215.98 281.701C215.995 281.696 216.008 281.686 216.017 281.673C216.027 281.66 216.033 281.644 216.034 281.626Z" fill="#FDFEFF"/>
</svg>
