<svg width="442" height="442" viewBox="0 0 442 442" fill="none" xmlns="http://www.w3.org/2000/svg">
<rect width="442" height="442" fill="white"/>
<path d="M349.976 268.149H91.056C65.0733 268.149 44 247.081 44 221.075C44 195.073 65.0733 174 91.056 174H349.976C375.965 174 397.039 195.073 397.039 221.075C397.039 247.081 375.965 268.149 349.976 268.149Z" fill="#FFD23F"/>
<path d="M93.4107 224.402C98.1561 227.499 102.975 228.633 105.084 228.633C106.553 228.633 106.891 228.039 106.891 227.445C106.891 226.761 106.453 226.469 105.815 226.323C104.099 225.881 99.1507 225.335 95.5174 222.159C93.6507 220.493 92.3867 218.183 92.3867 214.753C92.3867 207.65 97.8721 202.794 106.845 202.794C111.155 202.794 116.269 203.917 119.493 205.583V217.214C114.891 214.905 110.572 214.074 108.769 214.074C107.345 214.074 106.951 214.601 106.951 215.147C106.951 215.881 107.484 216.178 108.077 216.371C109.551 216.807 114.445 217.402 117.909 220.147C120.321 222.105 121.505 224.602 121.505 227.79C121.505 234.597 116 239.354 106.703 239.354C102.239 239.354 96.8987 238.275 93.4107 236.469V224.402Z" fill="black"/>
<path d="M142.924 225.251L141.354 218.037H141.26L139.694 225.251H142.924ZM134.784 203.335H148.748L162.288 238.815H146.518L145.272 234.16H137.142L135.76 238.815H121.266L134.784 203.335Z" fill="black"/>
<path d="M164.727 203.334H178.012L188.461 218.474L188.571 218.426V203.334H201.7V238.814H188.407L177.969 223.674L177.872 223.723V238.814H164.727V203.334Z" fill="black"/>
<path d="M215.417 215.389H205.52V203.333H239.933V215.389H230.029V238.815H215.417V215.389Z" fill="black"/>
<path d="M259.434 219.02C261.743 219.02 262.767 217.796 262.767 216.28C262.767 214.753 261.689 213.572 259.434 213.572H258.367V219.02H259.434ZM243.746 203.334H258.325C265.629 203.334 275.574 205.14 275.574 214.601C275.574 218.426 273.762 221.184 271.126 223.045L279.211 238.814H263.851L258.555 227.153H258.367V238.814H243.746V203.334Z" fill="black"/>
<path d="M301.266 225.251L299.69 218.037H299.581L298.017 225.251H301.266ZM293.121 203.335H307.097L320.63 238.815H304.842L303.599 234.16H295.485L294.102 238.815H279.586L293.121 203.335Z" fill="black"/>
<path d="M323.059 203.334H337.696V226.226H348.66V238.814H323.059V203.334Z" fill="black"/>
<path d="M355.109 209.274H355.927C356.235 209.274 356.49 209.244 356.685 209.202C356.885 209.147 357.035 209.074 357.158 208.959C357.273 208.856 357.345 208.728 357.394 208.578C357.437 208.431 357.454 208.244 357.454 208.055C357.454 207.862 357.437 207.698 357.394 207.552C357.363 207.412 357.303 207.299 357.193 207.202C357.097 207.098 356.945 207.031 356.775 206.995C356.599 206.947 356.369 206.916 356.085 206.916H355.109V209.274ZM355.109 210.68V213.663H353.127V205.431H356.085C357.223 205.431 358.073 205.638 358.599 206.05C359.145 206.462 359.394 207.038 359.394 207.802C359.394 208.352 359.261 208.826 358.975 209.238C358.702 209.632 358.273 209.935 357.661 210.135C357.794 210.214 357.914 210.304 358.011 210.426C358.121 210.535 358.199 210.687 358.285 210.838L359.933 213.663H358.066C357.782 213.663 357.599 213.564 357.485 213.359L356.151 210.947C356.103 210.856 356.03 210.795 355.957 210.747C355.873 210.704 355.757 210.68 355.611 210.68H355.109ZM350.618 209.564C350.618 210.364 350.75 211.099 351.035 211.795C351.321 212.492 351.715 213.086 352.193 213.602C352.697 214.11 353.303 214.511 353.945 214.807C354.618 215.092 355.351 215.238 356.115 215.238C356.63 215.238 357.145 215.183 357.63 215.038C358.09 214.911 358.546 214.723 358.97 214.48C359.363 214.226 359.733 213.94 360.073 213.59C360.418 213.25 360.715 212.868 360.958 212.45C361.182 212.02 361.375 211.571 361.491 211.092C361.649 210.607 361.703 210.104 361.703 209.564C361.703 209.038 361.649 208.523 361.491 208.038C361.375 207.552 361.182 207.086 360.958 206.674C360.715 206.244 360.418 205.856 360.073 205.516C359.733 205.171 359.363 204.874 358.97 204.619C358.546 204.371 358.09 204.19 357.63 204.05C357.145 203.916 356.63 203.85 356.115 203.85C355.611 203.85 355.109 203.916 354.642 204.05C354.175 204.19 353.739 204.371 353.314 204.619C352.902 204.874 352.533 205.171 352.199 205.516C351.866 205.856 351.587 206.244 351.351 206.674C351.097 207.086 350.933 207.552 350.799 208.038C350.678 208.523 350.618 209.038 350.618 209.564ZM349.363 209.564C349.363 208.94 349.447 208.34 349.599 207.759C349.781 207.183 349.994 206.65 350.303 206.14C350.575 205.643 350.945 205.195 351.351 204.776C351.77 204.371 352.23 204.007 352.714 203.716C353.218 203.426 353.757 203.2 354.333 203.031C354.897 202.88 355.497 202.795 356.115 202.795C356.757 202.795 357.345 202.88 357.914 203.031C358.509 203.2 359.054 203.426 359.551 203.716C360.061 204.007 360.502 204.371 360.903 204.776C361.339 205.195 361.691 205.643 361.97 206.14C362.273 206.65 362.485 207.183 362.654 207.759C362.83 208.34 362.903 208.94 362.903 209.564C362.903 210.183 362.83 210.776 362.654 211.359C362.485 211.94 362.273 212.468 361.97 212.983C361.691 213.474 361.339 213.935 360.903 214.335C360.502 214.752 360.061 215.111 359.551 215.408C359.054 215.692 358.509 215.93 357.914 216.086C357.345 216.25 356.757 216.323 356.115 216.323C355.497 216.323 354.897 216.25 354.333 216.086C353.757 215.93 353.218 215.692 352.714 215.408C352.23 215.111 351.77 214.752 351.351 214.335C350.945 213.935 350.575 213.474 350.303 212.983C349.994 212.468 349.781 211.94 349.599 211.359C349.447 210.795 349.363 210.19 349.363 209.564Z" fill="black"/>
</svg>
